<?xml version="1.0" encoding="UTF-8" standalone="no"?>
<!DOCTYPE svg PUBLIC "-//W3C//DTD SVG 1.1//EN"
 "http://www.w3.org/Graphics/SVG/1.1/DTD/svg11.dtd">
<!-- Generated by graphviz version 2.43.0 (0)
 -->
<!-- Title: %3 Pages: 1 -->
<svg width="1474pt" height="238pt"
 viewBox="0.00 0.00 1473.50 237.74" xmlns="http://www.w3.org/2000/svg" xmlns:xlink="http://www.w3.org/1999/xlink">
<g id="graph0" class="graph" transform="scale(1 1) rotate(0) translate(36 201.74)">
<title>%3</title>
<polygon fill="dimgray" stroke="transparent" points="-36,36 -36,-201.74 1437.5,-201.74 1437.5,36 -36,36"/>
<text text-anchor="middle" x="700.75" y="-150.54" font-family="Helvetica,sans-Serif" font-size="14.00">Sweep&#39;s Plan &amp; Progress</text>
<!-- start -->
<g id="node1" class="node">
<title>start</title>
</g>
<!-- d4429606&#45;4d19&#45;49df&#45;81e7&#45;3eabb8a9ce2c -->
<g id="node3" class="node">
<title>d4429606&#45;4d19&#45;49df&#45;81e7&#45;3eabb8a9ce2c</title>
<ellipse fill="#0ee832" stroke="black" cx="269.5" cy="-99.87" rx="192.17" ry="26.74"/>
<text text-anchor="middle" x="269.5" y="-103.67" font-family="Helvetica,sans-Serif" font-size="14.00">✓ Modify</text>
<text text-anchor="middle" x="269.5" y="-88.67" font-family="Helvetica,sans-Serif" font-size="14.00">gh0st&#45;writer/gpt_blog_generator.php</text>
</g>
<!-- start&#45;&gt;d4429606&#45;4d19&#45;49df&#45;81e7&#45;3eabb8a9ce2c -->
<g id="edge6" class="edge">
<title>start&#45;&gt;d4429606&#45;4d19&#45;49df&#45;81e7&#45;3eabb8a9ce2c</title>
<path fill="none" stroke="black" d="M26.2,-99.87C29.61,-99.87 45.2,-99.87 66.97,-99.87"/>
<polygon fill="black" stroke="black" points="67.02,-103.37 77.02,-99.87 67.02,-96.37 67.02,-103.37"/>
<text text-anchor="middle" x="51.58" y="-106.67" font-family="Helvetica,sans-Serif" font-size="14.00">Start</text>
</g>
<!-- end -->
<g id="node2" class="node">
<title>end</title>
</g>
<!-- 85525d33&#45;88ee&#45;4cc3&#45;90ec&#45;d9df7090d013 -->
<g id="node4" class="node">
<title>85525d33&#45;88ee&#45;4cc3&#45;90ec&#45;d9df7090d013</title>
<ellipse fill="white" stroke="black" cx="693.5" cy="-99.87" rx="159.2" ry="26.74"/>
<text text-anchor="middle" x="693.5" y="-103.67" font-family="Helvetica,sans-Serif" font-size="14.00">▶ Modify</text>
<text text-anchor="middle" x="693.5" y="-88.67" font-family="Helvetica,sans-Serif" font-size="14.00">gh0st&#45;writer/admin&#45;panel.php</text>
</g>
<!-- d4429606&#45;4d19&#45;49df&#45;81e7&#45;3eabb8a9ce2c&#45;&gt;85525d33&#45;88ee&#45;4cc3&#45;90ec&#45;d9df7090d013 -->
<g id="edge2" class="edge">
<title>d4429606&#45;4d19&#45;49df&#45;81e7&#45;3eabb8a9ce2c&#45;&gt;85525d33&#45;88ee&#45;4cc3&#45;90ec&#45;d9df7090d013</title>
<path fill="none" stroke="black" d="M462.04,-99.87C482.76,-99.87 503.48,-99.87 524.2,-99.87"/>
<polygon fill="black" stroke="black" points="524.37,-103.37 534.37,-99.87 524.37,-96.37 524.37,-103.37"/>
</g>
<!-- e5b6662c&#45;3c55&#45;4b8b&#45;ad3a&#45;6b771c33925b -->
<g id="node6" class="node">
<title>e5b6662c&#45;3c55&#45;4b8b&#45;ad3a&#45;6b771c33925b</title>
<polygon fill="yellow" stroke="black" points="467,-36 0,-36 0,0 467,0 467,-36"/>
<text text-anchor="middle" x="233.5" y="-14.3" font-family="Helvetica,sans-Serif" font-size="14.00">⋯ Run GitHub Actions for `gh0st&#45;writer/gpt_blog_generator.php`</text>
</g>
<!-- d4429606&#45;4d19&#45;49df&#45;81e7&#45;3eabb8a9ce2c&#45;&gt;e5b6662c&#45;3c55&#45;4b8b&#45;ad3a&#45;6b771c33925b -->
<g id="edge1" class="edge">
<title>d4429606&#45;4d19&#45;49df&#45;81e7&#45;3eabb8a9ce2c&#45;&gt;e5b6662c&#45;3c55&#45;4b8b&#45;ad3a&#45;6b771c33925b</title>
<path fill="none" stroke="black" stroke-dasharray="5,2" d="M257.71,-72.72C253.78,-63.99 249.39,-54.26 245.45,-45.51"/>
<polygon fill="black" stroke="black" points="248.53,-43.82 241.23,-36.15 242.15,-46.7 248.53,-43.82"/>
</g>
<!-- 5f3f7d1c&#45;ed01&#45;4057&#45;b77d&#45;dbe278bf1a15 -->
<g id="node5" class="node">
<title>5f3f7d1c&#45;ed01&#45;4057&#45;b77d&#45;dbe278bf1a15</title>
<ellipse fill="white" stroke="black" cx="1127.5" cy="-99.87" rx="205.54" ry="26.74"/>
<text text-anchor="middle" x="1127.5" y="-103.67" font-family="Helvetica,sans-Serif" font-size="14.00">▶ Modify</text>
<text text-anchor="middle" x="1127.5" y="-88.67" font-family="Helvetica,sans-Serif" font-size="14.00">gh0st&#45;writer/tests/openai_api_tests.php</text>
</g>
<!-- 85525d33&#45;88ee&#45;4cc3&#45;90ec&#45;d9df7090d013&#45;&gt;5f3f7d1c&#45;ed01&#45;4057&#45;b77d&#45;dbe278bf1a15 -->
<g id="edge4" class="edge">
<title>85525d33&#45;88ee&#45;4cc3&#45;90ec&#45;d9df7090d013&#45;&gt;5f3f7d1c&#45;ed01&#45;4057&#45;b77d&#45;dbe278bf1a15</title>
<path fill="none" stroke="black" d="M852.86,-99.87C872.35,-99.87 891.84,-99.87 911.33,-99.87"/>
<polygon fill="black" stroke="black" points="911.52,-103.37 921.52,-99.87 911.52,-96.37 911.52,-103.37"/>
</g>
<!-- f13cce88&#45;5d21&#45;43bd&#45;80e6&#45;b99c6ffdb0e3 -->
<g id="node7" class="node">
<title>f13cce88&#45;5d21&#45;43bd&#45;80e6&#45;b99c6ffdb0e3</title>
<polygon fill="white" stroke="black" points="901.5,-36 485.5,-36 485.5,0 901.5,0 901.5,-36"/>
<text text-anchor="middle" x="693.5" y="-14.3" font-family="Helvetica,sans-Serif" font-size="14.00">▶ Run GitHub Actions for `gh0st&#45;writer/admin&#45;panel.php`</text>
</g>
<!-- 85525d33&#45;88ee&#45;4cc3&#45;90ec&#45;d9df7090d013&#45;&gt;f13cce88&#45;5d21&#45;43bd&#45;80e6&#45;b99c6ffdb0e3 -->
<g id="edge3" class="edge">
<title>85525d33&#45;88ee&#45;4cc3&#45;90ec&#45;d9df7090d013&#45;&gt;f13cce88&#45;5d21&#45;43bd&#45;80e6&#45;b99c6ffdb0e3</title>
<path fill="none" stroke="black" stroke-dasharray="5,2" d="M693.5,-72.72C693.5,-64.27 693.5,-54.89 693.5,-46.36"/>
<polygon fill="black" stroke="black" points="697,-46.15 693.5,-36.15 690,-46.15 697,-46.15"/>
</g>
<!-- 5f3f7d1c&#45;ed01&#45;4057&#45;b77d&#45;dbe278bf1a15&#45;&gt;end -->
<g id="edge7" class="edge">
<title>5f3f7d1c&#45;ed01&#45;4057&#45;b77d&#45;dbe278bf1a15&#45;&gt;end</title>
<path fill="none" stroke="black" d="M1333.56,-99.87C1353.63,-99.87 1370.32,-99.87 1380.55,-99.87"/>
<polygon fill="black" stroke="black" points="1380.87,-103.37 1390.87,-99.87 1380.87,-96.37 1380.87,-103.37"/>
<text text-anchor="middle" x="1362.13" y="-106.67" font-family="Helvetica,sans-Serif" font-size="14.00">Finish</text>
</g>
<!-- 4a96a134&#45;42ad&#45;457e&#45;9463&#45;0a3c5043bfb6 -->
<g id="node8" class="node">
<title>4a96a134&#45;42ad&#45;457e&#45;9463&#45;0a3c5043bfb6</title>
<polygon fill="white" stroke="black" points="1401.5,-36 919.5,-36 919.5,0 1401.5,0 1401.5,-36"/>
<text text-anchor="middle" x="1160.5" y="-14.3" font-family="Helvetica,sans-Serif" font-size="14.00">▶ Run GitHub Actions for `gh0st&#45;writer/tests/openai_api_tests.php`</text>
</g>
<!-- 5f3f7d1c&#45;ed01&#45;4057&#45;b77d&#45;dbe278bf1a15&#45;&gt;4a96a134&#45;42ad&#45;457e&#45;9463&#45;0a3c5043bfb6 -->
<g id="edge5" class="edge">
<title>5f3f7d1c&#45;ed01&#45;4057&#45;b77d&#45;dbe278bf1a15&#45;&gt;4a96a134&#45;42ad&#45;457e&#45;9463&#45;0a3c5043bfb6</title>
<path fill="none" stroke="black" stroke-dasharray="5,2" d="M1138.31,-72.72C1141.91,-63.99 1145.93,-54.26 1149.55,-45.51"/>
<polygon fill="black" stroke="black" points="1152.83,-46.73 1153.42,-36.15 1146.36,-44.05 1152.83,-46.73"/>
</g>
</g>
</svg>
