<?xml version="1.0" encoding="UTF-8" standalone="no"?>
<!DOCTYPE svg PUBLIC "-//W3C//DTD SVG 1.1//EN"
 "http://www.w3.org/Graphics/SVG/1.1/DTD/svg11.dtd">
<!-- Generated by graphviz version 2.43.0 (0)
 -->
<!-- Title: %3 Pages: 1 -->
<svg width="1263pt" height="238pt"
 viewBox="0.00 0.00 1263.00 237.74" xmlns="http://www.w3.org/2000/svg" xmlns:xlink="http://www.w3.org/1999/xlink">
<g id="graph0" class="graph" transform="scale(1 1) rotate(0) translate(36 201.74)">
<title>%3</title>
<polygon fill="dimgray" stroke="transparent" points="-36,36 -36,-201.74 1227,-201.74 1227,36 -36,36"/>
<text text-anchor="middle" x="595.5" y="-150.54" font-family="Helvetica,sans-Serif" font-size="14.00">Sweep&#39;s Plan &amp; Progress</text>
<!-- start -->
<g id="node1" class="node">
<title>start</title>
</g>
<!-- 8242a9a8&#45;a10d&#45;4071&#45;969a&#45;c8e4467b33fb -->
<g id="node3" class="node">
<title>8242a9a8&#45;a10d&#45;4071&#45;969a&#45;c8e4467b33fb</title>
<ellipse fill="yellow" stroke="black" cx="294.5" cy="-99.87" rx="231.86" ry="26.74"/>
<text text-anchor="middle" x="294.5" y="-103.67" font-family="Helvetica,sans-Serif" font-size="14.00">⋯ Create</text>
<text text-anchor="middle" x="294.5" y="-88.67" font-family="Helvetica,sans-Serif" font-size="14.00">gh0st&#45;writer/my_custom_blog_generator.php</text>
</g>
<!-- start&#45;&gt;8242a9a8&#45;a10d&#45;4071&#45;969a&#45;c8e4467b33fb -->
<g id="edge6" class="edge">
<title>start&#45;&gt;8242a9a8&#45;a10d&#45;4071&#45;969a&#45;c8e4467b33fb</title>
<path fill="none" stroke="black" d="M11.31,-99.87C14.93,-99.87 30.3,-99.87 52.16,-99.87"/>
<polygon fill="black" stroke="black" points="52.27,-103.37 62.27,-99.87 52.27,-96.37 52.27,-103.37"/>
<text text-anchor="middle" x="36.78" y="-106.67" font-family="Helvetica,sans-Serif" font-size="14.00">Start</text>
</g>
<!-- end -->
<g id="node2" class="node">
<title>end</title>
</g>
<!-- 020c82da&#45;1360&#45;48ba&#45;883b&#45;341ff0d50bd2 -->
<g id="node4" class="node">
<title>020c82da&#45;1360&#45;48ba&#45;883b&#45;341ff0d50bd2</title>
<ellipse fill="white" stroke="black" cx="719.5" cy="-99.87" rx="123.07" ry="26.74"/>
<text text-anchor="middle" x="719.5" y="-103.67" font-family="Helvetica,sans-Serif" font-size="14.00">▶ Modify</text>
<text text-anchor="middle" x="719.5" y="-88.67" font-family="Helvetica,sans-Serif" font-size="14.00">gh0st&#45;writer/TODO.md</text>
</g>
<!-- 8242a9a8&#45;a10d&#45;4071&#45;969a&#45;c8e4467b33fb&#45;&gt;020c82da&#45;1360&#45;48ba&#45;883b&#45;341ff0d50bd2 -->
<g id="edge2" class="edge">
<title>8242a9a8&#45;a10d&#45;4071&#45;969a&#45;c8e4467b33fb&#45;&gt;020c82da&#45;1360&#45;48ba&#45;883b&#45;341ff0d50bd2</title>
<path fill="none" stroke="black" d="M526.51,-99.87C546.39,-99.87 566.28,-99.87 586.16,-99.87"/>
<polygon fill="black" stroke="black" points="586.24,-103.37 596.24,-99.87 586.24,-96.37 586.24,-103.37"/>
</g>
<!-- c512bf3e&#45;37c3&#45;44bf&#45;996c&#45;9b57e3c93874 -->
<g id="node6" class="node">
<title>c512bf3e&#45;37c3&#45;44bf&#45;996c&#45;9b57e3c93874</title>
<polygon fill="white" stroke="black" points="519,-36 0,-36 0,0 519,0 519,-36"/>
<text text-anchor="middle" x="259.5" y="-14.3" font-family="Helvetica,sans-Serif" font-size="14.00">▶ Run GitHub Actions for `gh0st&#45;writer/my_custom_blog_generator.php`</text>
</g>
<!-- 8242a9a8&#45;a10d&#45;4071&#45;969a&#45;c8e4467b33fb&#45;&gt;c512bf3e&#45;37c3&#45;44bf&#45;996c&#45;9b57e3c93874 -->
<g id="edge1" class="edge">
<title>8242a9a8&#45;a10d&#45;4071&#45;969a&#45;c8e4467b33fb&#45;&gt;c512bf3e&#45;37c3&#45;44bf&#45;996c&#45;9b57e3c93874</title>
<path fill="none" stroke="black" stroke-dasharray="5,2" d="M283.04,-72.72C279.22,-63.99 274.95,-54.26 271.12,-45.51"/>
<polygon fill="black" stroke="black" points="274.23,-43.9 267.01,-36.15 267.82,-46.71 274.23,-43.9"/>
</g>
<!-- f8f246cb&#45;f729&#45;44ef&#45;a93c&#45;7c937a5ac1b6 -->
<g id="node5" class="node">
<title>f8f246cb&#45;f729&#45;44ef&#45;a93c&#45;7c937a5ac1b6</title>
<ellipse fill="white" stroke="black" cx="995.5" cy="-99.87" rx="56.64" ry="26.74"/>
<text text-anchor="middle" x="995.5" y="-103.67" font-family="Helvetica,sans-Serif" font-size="14.00">▶ Modify</text>
<text text-anchor="middle" x="995.5" y="-88.67" font-family="Helvetica,sans-Serif" font-size="14.00">specs.txt</text>
</g>
<!-- 020c82da&#45;1360&#45;48ba&#45;883b&#45;341ff0d50bd2&#45;&gt;f8f246cb&#45;f729&#45;44ef&#45;a93c&#45;7c937a5ac1b6 -->
<g id="edge4" class="edge">
<title>020c82da&#45;1360&#45;48ba&#45;883b&#45;341ff0d50bd2&#45;&gt;f8f246cb&#45;f729&#45;44ef&#45;a93c&#45;7c937a5ac1b6</title>
<path fill="none" stroke="black" d="M842.68,-99.87C871.33,-99.87 899.99,-99.87 928.65,-99.87"/>
<polygon fill="black" stroke="black" points="928.79,-103.37 938.79,-99.87 928.79,-96.37 928.79,-103.37"/>
</g>
<!-- 62b73250&#45;36ab&#45;4066&#45;80ea&#45;b2b6a2437409 -->
<g id="node7" class="node">
<title>62b73250&#45;36ab&#45;4066&#45;80ea&#45;b2b6a2437409</title>
<polygon fill="white" stroke="black" points="902,-36 537,-36 537,0 902,0 902,-36"/>
<text text-anchor="middle" x="719.5" y="-14.3" font-family="Helvetica,sans-Serif" font-size="14.00">▶ Run GitHub Actions for `gh0st&#45;writer/TODO.md`</text>
</g>
<!-- 020c82da&#45;1360&#45;48ba&#45;883b&#45;341ff0d50bd2&#45;&gt;62b73250&#45;36ab&#45;4066&#45;80ea&#45;b2b6a2437409 -->
<g id="edge3" class="edge">
<title>020c82da&#45;1360&#45;48ba&#45;883b&#45;341ff0d50bd2&#45;&gt;62b73250&#45;36ab&#45;4066&#45;80ea&#45;b2b6a2437409</title>
<path fill="none" stroke="black" stroke-dasharray="5,2" d="M719.5,-72.72C719.5,-64.27 719.5,-54.89 719.5,-46.36"/>
<polygon fill="black" stroke="black" points="723,-46.15 719.5,-36.15 716,-46.15 723,-46.15"/>
</g>
<!-- f8f246cb&#45;f729&#45;44ef&#45;a93c&#45;7c937a5ac1b6&#45;&gt;end -->
<g id="edge7" class="edge">
<title>f8f246cb&#45;f729&#45;44ef&#45;a93c&#45;7c937a5ac1b6&#45;&gt;end</title>
<path fill="none" stroke="black" d="M1052.33,-99.87C1070.38,-99.87 1088.52,-99.87 1099.63,-99.87"/>
<polygon fill="black" stroke="black" points="1099.75,-103.37 1109.75,-99.87 1099.75,-96.37 1099.75,-103.37"/>
<text text-anchor="middle" x="1081.03" y="-106.67" font-family="Helvetica,sans-Serif" font-size="14.00">Finish</text>
</g>
<!-- fab51d08&#45;e7c3&#45;4d7d&#45;8d5f&#45;35f341ab1d89 -->
<g id="node8" class="node">
<title>fab51d08&#45;e7c3&#45;4d7d&#45;8d5f&#45;35f341ab1d89</title>
<polygon fill="white" stroke="black" points="1191,-36 920,-36 920,0 1191,0 1191,-36"/>
<text text-anchor="middle" x="1055.5" y="-14.3" font-family="Helvetica,sans-Serif" font-size="14.00">▶ Run GitHub Actions for `specs.txt`</text>
</g>
<!-- f8f246cb&#45;f729&#45;44ef&#45;a93c&#45;7c937a5ac1b6&#45;&gt;fab51d08&#45;e7c3&#45;4d7d&#45;8d5f&#45;35f341ab1d89 -->
<g id="edge5" class="edge">
<title>f8f246cb&#45;f729&#45;44ef&#45;a93c&#45;7c937a5ac1b6&#45;&gt;fab51d08&#45;e7c3&#45;4d7d&#45;8d5f&#45;35f341ab1d89</title>
<path fill="none" stroke="black" stroke-dasharray="5,2" d="M1014.16,-74.04C1021.21,-64.64 1029.26,-53.94 1036.36,-44.48"/>
<polygon fill="black" stroke="black" points="1039.35,-46.32 1042.56,-36.22 1033.76,-42.12 1039.35,-46.32"/>
</g>
</g>
</svg>
