<?xml version="1.0" encoding="UTF-8" standalone="no"?>
<!DOCTYPE svg PUBLIC "-//W3C//DTD SVG 1.1//EN"
 "http://www.w3.org/Graphics/SVG/1.1/DTD/svg11.dtd">
<!-- Generated by graphviz version 2.43.0 (0)
 -->
<!-- Title: %3 Pages: 1 -->
<svg width="1474pt" height="238pt"
 viewBox="0.00 0.00 1474.00 237.74" xmlns="http://www.w3.org/2000/svg" xmlns:xlink="http://www.w3.org/1999/xlink">
<g id="graph0" class="graph" transform="scale(1 1) rotate(0) translate(36 201.74)">
<title>%3</title>
<polygon fill="dimgray" stroke="transparent" points="-36,36 -36,-201.74 1438,-201.74 1438,36 -36,36"/>
<text text-anchor="middle" x="701" y="-150.54" font-family="Helvetica,sans-Serif" font-size="14.00">Sweep&#39;s Plan &amp; Progress</text>
<!-- start -->
<g id="node1" class="node">
<title>start</title>
</g>
<!-- d4429606&#45;4d19&#45;49df&#45;81e7&#45;3eabb8a9ce2c -->
<g id="node3" class="node">
<title>d4429606&#45;4d19&#45;49df&#45;81e7&#45;3eabb8a9ce2c</title>
<ellipse fill="#0ee832" stroke="black" cx="268" cy="-99.87" rx="192.17" ry="26.74"/>
<text text-anchor="middle" x="268" y="-103.67" font-family="Helvetica,sans-Serif" font-size="14.00">✓ Modify</text>
<text text-anchor="middle" x="268" y="-88.67" font-family="Helvetica,sans-Serif" font-size="14.00">gh0st&#45;writer/gpt_blog_generator.php</text>
</g>
<!-- start&#45;&gt;d4429606&#45;4d19&#45;49df&#45;81e7&#45;3eabb8a9ce2c -->
<g id="edge6" class="edge">
<title>start&#45;&gt;d4429606&#45;4d19&#45;49df&#45;81e7&#45;3eabb8a9ce2c</title>
<path fill="none" stroke="black" d="M24.7,-99.87C28.11,-99.87 43.7,-99.87 65.47,-99.87"/>
<polygon fill="black" stroke="black" points="65.52,-103.37 75.52,-99.87 65.52,-96.37 65.52,-103.37"/>
<text text-anchor="middle" x="50.08" y="-106.67" font-family="Helvetica,sans-Serif" font-size="14.00">Start</text>
</g>
<!-- end -->
<g id="node2" class="node">
<title>end</title>
</g>
<!-- 85525d33&#45;88ee&#45;4cc3&#45;90ec&#45;d9df7090d013 -->
<g id="node4" class="node">
<title>85525d33&#45;88ee&#45;4cc3&#45;90ec&#45;d9df7090d013</title>
<ellipse fill="#0ee832" stroke="black" cx="691" cy="-99.87" rx="159.2" ry="26.74"/>
<text text-anchor="middle" x="691" y="-103.67" font-family="Helvetica,sans-Serif" font-size="14.00">✓ Modify</text>
<text text-anchor="middle" x="691" y="-88.67" font-family="Helvetica,sans-Serif" font-size="14.00">gh0st&#45;writer/admin&#45;panel.php</text>
</g>
<!-- d4429606&#45;4d19&#45;49df&#45;81e7&#45;3eabb8a9ce2c&#45;&gt;85525d33&#45;88ee&#45;4cc3&#45;90ec&#45;d9df7090d013 -->
<g id="edge2" class="edge">
<title>d4429606&#45;4d19&#45;49df&#45;81e7&#45;3eabb8a9ce2c&#45;&gt;85525d33&#45;88ee&#45;4cc3&#45;90ec&#45;d9df7090d013</title>
<path fill="none" stroke="black" d="M460.5,-99.87C480.87,-99.87 501.25,-99.87 521.63,-99.87"/>
<polygon fill="black" stroke="black" points="521.63,-103.37 531.63,-99.87 521.63,-96.37 521.63,-103.37"/>
</g>
<!-- e5b6662c&#45;3c55&#45;4b8b&#45;ad3a&#45;6b771c33925b -->
<g id="node6" class="node">
<title>e5b6662c&#45;3c55&#45;4b8b&#45;ad3a&#45;6b771c33925b</title>
<polygon fill="#0ee832" stroke="black" points="464,-36 0,-36 0,0 464,0 464,-36"/>
<text text-anchor="middle" x="232" y="-14.3" font-family="Helvetica,sans-Serif" font-size="14.00">✓ Run GitHub Actions for `gh0st&#45;writer/gpt_blog_generator.php`</text>
</g>
<!-- d4429606&#45;4d19&#45;49df&#45;81e7&#45;3eabb8a9ce2c&#45;&gt;e5b6662c&#45;3c55&#45;4b8b&#45;ad3a&#45;6b771c33925b -->
<g id="edge1" class="edge">
<title>d4429606&#45;4d19&#45;49df&#45;81e7&#45;3eabb8a9ce2c&#45;&gt;e5b6662c&#45;3c55&#45;4b8b&#45;ad3a&#45;6b771c33925b</title>
<path fill="none" stroke="black" stroke-dasharray="5,2" d="M256.21,-72.72C252.28,-63.99 247.89,-54.26 243.95,-45.51"/>
<polygon fill="black" stroke="black" points="247.03,-43.82 239.73,-36.15 240.65,-46.7 247.03,-43.82"/>
</g>
<!-- 5f3f7d1c&#45;ed01&#45;4057&#45;b77d&#45;dbe278bf1a15 -->
<g id="node5" class="node">
<title>5f3f7d1c&#45;ed01&#45;4057&#45;b77d&#45;dbe278bf1a15</title>
<ellipse fill="#0ee832" stroke="black" cx="1126" cy="-99.87" rx="205.54" ry="26.74"/>
<text text-anchor="middle" x="1126" y="-103.67" font-family="Helvetica,sans-Serif" font-size="14.00">✓ Modify</text>
<text text-anchor="middle" x="1126" y="-88.67" font-family="Helvetica,sans-Serif" font-size="14.00">gh0st&#45;writer/tests/openai_api_tests.php</text>
</g>
<!-- 85525d33&#45;88ee&#45;4cc3&#45;90ec&#45;d9df7090d013&#45;&gt;5f3f7d1c&#45;ed01&#45;4057&#45;b77d&#45;dbe278bf1a15 -->
<g id="edge4" class="edge">
<title>85525d33&#45;88ee&#45;4cc3&#45;90ec&#45;d9df7090d013&#45;&gt;5f3f7d1c&#45;ed01&#45;4057&#45;b77d&#45;dbe278bf1a15</title>
<path fill="none" stroke="black" d="M850.3,-99.87C870.19,-99.87 890.07,-99.87 909.96,-99.87"/>
<polygon fill="black" stroke="black" points="910.03,-103.37 920.03,-99.87 910.03,-96.37 910.03,-103.37"/>
</g>
<!-- f13cce88&#45;5d21&#45;43bd&#45;80e6&#45;b99c6ffdb0e3 -->
<g id="node7" class="node">
<title>f13cce88&#45;5d21&#45;43bd&#45;80e6&#45;b99c6ffdb0e3</title>
<polygon fill="#0ee832" stroke="black" points="900,-36 482,-36 482,0 900,0 900,-36"/>
<text text-anchor="middle" x="691" y="-14.3" font-family="Helvetica,sans-Serif" font-size="14.00">✓ Run GitHub Actions for `gh0st&#45;writer/admin&#45;panel.php`</text>
</g>
<!-- 85525d33&#45;88ee&#45;4cc3&#45;90ec&#45;d9df7090d013&#45;&gt;f13cce88&#45;5d21&#45;43bd&#45;80e6&#45;b99c6ffdb0e3 -->
<g id="edge3" class="edge">
<title>85525d33&#45;88ee&#45;4cc3&#45;90ec&#45;d9df7090d013&#45;&gt;f13cce88&#45;5d21&#45;43bd&#45;80e6&#45;b99c6ffdb0e3</title>
<path fill="none" stroke="black" stroke-dasharray="5,2" d="M691,-72.72C691,-64.27 691,-54.89 691,-46.36"/>
<polygon fill="black" stroke="black" points="694.5,-46.15 691,-36.15 687.5,-46.15 694.5,-46.15"/>
</g>
<!-- 5f3f7d1c&#45;ed01&#45;4057&#45;b77d&#45;dbe278bf1a15&#45;&gt;end -->
<g id="edge7" class="edge">
<title>5f3f7d1c&#45;ed01&#45;4057&#45;b77d&#45;dbe278bf1a15&#45;&gt;end</title>
<path fill="none" stroke="black" d="M1332.06,-99.87C1352.13,-99.87 1368.82,-99.87 1379.05,-99.87"/>
<polygon fill="black" stroke="black" points="1379.37,-103.37 1389.37,-99.87 1379.37,-96.37 1379.37,-103.37"/>
<text text-anchor="middle" x="1360.63" y="-106.67" font-family="Helvetica,sans-Serif" font-size="14.00">Finish</text>
</g>
<!-- 4a96a134&#45;42ad&#45;457e&#45;9463&#45;0a3c5043bfb6 -->
<g id="node8" class="node">
<title>4a96a134&#45;42ad&#45;457e&#45;9463&#45;0a3c5043bfb6</title>
<polygon fill="#0ee832" stroke="black" points="1402,-36 918,-36 918,0 1402,0 1402,-36"/>
<text text-anchor="middle" x="1160" y="-14.3" font-family="Helvetica,sans-Serif" font-size="14.00">✓ Run GitHub Actions for `gh0st&#45;writer/tests/openai_api_tests.php`</text>
</g>
<!-- 5f3f7d1c&#45;ed01&#45;4057&#45;b77d&#45;dbe278bf1a15&#45;&gt;4a96a134&#45;42ad&#45;457e&#45;9463&#45;0a3c5043bfb6 -->
<g id="edge5" class="edge">
<title>5f3f7d1c&#45;ed01&#45;4057&#45;b77d&#45;dbe278bf1a15&#45;&gt;4a96a134&#45;42ad&#45;457e&#45;9463&#45;0a3c5043bfb6</title>
<path fill="none" stroke="black" stroke-dasharray="5,2" d="M1137.13,-72.72C1140.85,-63.99 1144.99,-54.26 1148.71,-45.51"/>
<polygon fill="black" stroke="black" points="1152,-46.72 1152.7,-36.15 1145.56,-43.98 1152,-46.72"/>
</g>
</g>
</svg>
