<?xml version="1.0" encoding="UTF-8" standalone="no"?>
<!DOCTYPE svg PUBLIC "-//W3C//DTD SVG 1.1//EN"
 "http://www.w3.org/Graphics/SVG/1.1/DTD/svg11.dtd">
<!-- Generated by graphviz version 2.43.0 (0)
 -->
<!-- Title: %3 Pages: 1 -->
<svg width="1470pt" height="238pt"
 viewBox="0.00 0.00 1469.50 237.74" xmlns="http://www.w3.org/2000/svg" xmlns:xlink="http://www.w3.org/1999/xlink">
<g id="graph0" class="graph" transform="scale(1 1) rotate(0) translate(36 201.74)">
<title>%3</title>
<polygon fill="dimgray" stroke="transparent" points="-36,36 -36,-201.74 1433.5,-201.74 1433.5,36 -36,36"/>
<text text-anchor="middle" x="698.75" y="-150.54" font-family="Helvetica,sans-Serif" font-size="14.00">Sweep&#39;s Plan &amp; Progress</text>
<!-- start -->
<g id="node1" class="node">
<title>start</title>
</g>
<!-- d4429606&#45;4d19&#45;49df&#45;81e7&#45;3eabb8a9ce2c -->
<g id="node3" class="node">
<title>d4429606&#45;4d19&#45;49df&#45;81e7&#45;3eabb8a9ce2c</title>
<ellipse fill="yellow" stroke="black" cx="266.5" cy="-99.87" rx="192.17" ry="26.74"/>
<text text-anchor="middle" x="266.5" y="-103.67" font-family="Helvetica,sans-Serif" font-size="14.00">⋯ Modify</text>
<text text-anchor="middle" x="266.5" y="-88.67" font-family="Helvetica,sans-Serif" font-size="14.00">gh0st&#45;writer/gpt_blog_generator.php</text>
</g>
<!-- start&#45;&gt;d4429606&#45;4d19&#45;49df&#45;81e7&#45;3eabb8a9ce2c -->
<g id="edge6" class="edge">
<title>start&#45;&gt;d4429606&#45;4d19&#45;49df&#45;81e7&#45;3eabb8a9ce2c</title>
<path fill="none" stroke="black" d="M23.2,-99.87C26.61,-99.87 42.2,-99.87 63.97,-99.87"/>
<polygon fill="black" stroke="black" points="64.02,-103.37 74.02,-99.87 64.02,-96.37 64.02,-103.37"/>
<text text-anchor="middle" x="48.58" y="-106.67" font-family="Helvetica,sans-Serif" font-size="14.00">Start</text>
</g>
<!-- end -->
<g id="node2" class="node">
<title>end</title>
</g>
<!-- 85525d33&#45;88ee&#45;4cc3&#45;90ec&#45;d9df7090d013 -->
<g id="node4" class="node">
<title>85525d33&#45;88ee&#45;4cc3&#45;90ec&#45;d9df7090d013</title>
<ellipse fill="white" stroke="black" cx="689.5" cy="-99.87" rx="159.2" ry="26.74"/>
<text text-anchor="middle" x="689.5" y="-103.67" font-family="Helvetica,sans-Serif" font-size="14.00">▶ Modify</text>
<text text-anchor="middle" x="689.5" y="-88.67" font-family="Helvetica,sans-Serif" font-size="14.00">gh0st&#45;writer/admin&#45;panel.php</text>
</g>
<!-- d4429606&#45;4d19&#45;49df&#45;81e7&#45;3eabb8a9ce2c&#45;&gt;85525d33&#45;88ee&#45;4cc3&#45;90ec&#45;d9df7090d013 -->
<g id="edge2" class="edge">
<title>d4429606&#45;4d19&#45;49df&#45;81e7&#45;3eabb8a9ce2c&#45;&gt;85525d33&#45;88ee&#45;4cc3&#45;90ec&#45;d9df7090d013</title>
<path fill="none" stroke="black" d="M459,-99.87C479.37,-99.87 499.75,-99.87 520.13,-99.87"/>
<polygon fill="black" stroke="black" points="520.13,-103.37 530.13,-99.87 520.13,-96.37 520.13,-103.37"/>
</g>
<!-- e5b6662c&#45;3c55&#45;4b8b&#45;ad3a&#45;6b771c33925b -->
<g id="node6" class="node">
<title>e5b6662c&#45;3c55&#45;4b8b&#45;ad3a&#45;6b771c33925b</title>
<polygon fill="white" stroke="black" points="463,-36 0,-36 0,0 463,0 463,-36"/>
<text text-anchor="middle" x="231.5" y="-14.3" font-family="Helvetica,sans-Serif" font-size="14.00">▶ Run GitHub Actions for `gh0st&#45;writer/gpt_blog_generator.php`</text>
</g>
<!-- d4429606&#45;4d19&#45;49df&#45;81e7&#45;3eabb8a9ce2c&#45;&gt;e5b6662c&#45;3c55&#45;4b8b&#45;ad3a&#45;6b771c33925b -->
<g id="edge1" class="edge">
<title>d4429606&#45;4d19&#45;49df&#45;81e7&#45;3eabb8a9ce2c&#45;&gt;e5b6662c&#45;3c55&#45;4b8b&#45;ad3a&#45;6b771c33925b</title>
<path fill="none" stroke="black" stroke-dasharray="5,2" d="M255.04,-72.72C251.22,-63.99 246.95,-54.26 243.12,-45.51"/>
<polygon fill="black" stroke="black" points="246.23,-43.9 239.01,-36.15 239.82,-46.71 246.23,-43.9"/>
</g>
<!-- 5f3f7d1c&#45;ed01&#45;4057&#45;b77d&#45;dbe278bf1a15 -->
<g id="node5" class="node">
<title>5f3f7d1c&#45;ed01&#45;4057&#45;b77d&#45;dbe278bf1a15</title>
<ellipse fill="white" stroke="black" cx="1123.5" cy="-99.87" rx="205.54" ry="26.74"/>
<text text-anchor="middle" x="1123.5" y="-103.67" font-family="Helvetica,sans-Serif" font-size="14.00">▶ Modify</text>
<text text-anchor="middle" x="1123.5" y="-88.67" font-family="Helvetica,sans-Serif" font-size="14.00">gh0st&#45;writer/tests/openai_api_tests.php</text>
</g>
<!-- 85525d33&#45;88ee&#45;4cc3&#45;90ec&#45;d9df7090d013&#45;&gt;5f3f7d1c&#45;ed01&#45;4057&#45;b77d&#45;dbe278bf1a15 -->
<g id="edge4" class="edge">
<title>85525d33&#45;88ee&#45;4cc3&#45;90ec&#45;d9df7090d013&#45;&gt;5f3f7d1c&#45;ed01&#45;4057&#45;b77d&#45;dbe278bf1a15</title>
<path fill="none" stroke="black" d="M848.86,-99.87C868.35,-99.87 887.84,-99.87 907.33,-99.87"/>
<polygon fill="black" stroke="black" points="907.52,-103.37 917.52,-99.87 907.52,-96.37 907.52,-103.37"/>
</g>
<!-- f13cce88&#45;5d21&#45;43bd&#45;80e6&#45;b99c6ffdb0e3 -->
<g id="node7" class="node">
<title>f13cce88&#45;5d21&#45;43bd&#45;80e6&#45;b99c6ffdb0e3</title>
<polygon fill="white" stroke="black" points="897.5,-36 481.5,-36 481.5,0 897.5,0 897.5,-36"/>
<text text-anchor="middle" x="689.5" y="-14.3" font-family="Helvetica,sans-Serif" font-size="14.00">▶ Run GitHub Actions for `gh0st&#45;writer/admin&#45;panel.php`</text>
</g>
<!-- 85525d33&#45;88ee&#45;4cc3&#45;90ec&#45;d9df7090d013&#45;&gt;f13cce88&#45;5d21&#45;43bd&#45;80e6&#45;b99c6ffdb0e3 -->
<g id="edge3" class="edge">
<title>85525d33&#45;88ee&#45;4cc3&#45;90ec&#45;d9df7090d013&#45;&gt;f13cce88&#45;5d21&#45;43bd&#45;80e6&#45;b99c6ffdb0e3</title>
<path fill="none" stroke="black" stroke-dasharray="5,2" d="M689.5,-72.72C689.5,-64.27 689.5,-54.89 689.5,-46.36"/>
<polygon fill="black" stroke="black" points="693,-46.15 689.5,-36.15 686,-46.15 693,-46.15"/>
</g>
<!-- 5f3f7d1c&#45;ed01&#45;4057&#45;b77d&#45;dbe278bf1a15&#45;&gt;end -->
<g id="edge7" class="edge">
<title>5f3f7d1c&#45;ed01&#45;4057&#45;b77d&#45;dbe278bf1a15&#45;&gt;end</title>
<path fill="none" stroke="black" d="M1329.56,-99.87C1349.63,-99.87 1366.32,-99.87 1376.55,-99.87"/>
<polygon fill="black" stroke="black" points="1376.87,-103.37 1386.87,-99.87 1376.87,-96.37 1376.87,-103.37"/>
<text text-anchor="middle" x="1358.13" y="-106.67" font-family="Helvetica,sans-Serif" font-size="14.00">Finish</text>
</g>
<!-- 4a96a134&#45;42ad&#45;457e&#45;9463&#45;0a3c5043bfb6 -->
<g id="node8" class="node">
<title>4a96a134&#45;42ad&#45;457e&#45;9463&#45;0a3c5043bfb6</title>
<polygon fill="white" stroke="black" points="1397.5,-36 915.5,-36 915.5,0 1397.5,0 1397.5,-36"/>
<text text-anchor="middle" x="1156.5" y="-14.3" font-family="Helvetica,sans-Serif" font-size="14.00">▶ Run GitHub Actions for `gh0st&#45;writer/tests/openai_api_tests.php`</text>
</g>
<!-- 5f3f7d1c&#45;ed01&#45;4057&#45;b77d&#45;dbe278bf1a15&#45;&gt;4a96a134&#45;42ad&#45;457e&#45;9463&#45;0a3c5043bfb6 -->
<g id="edge5" class="edge">
<title>5f3f7d1c&#45;ed01&#45;4057&#45;b77d&#45;dbe278bf1a15&#45;&gt;4a96a134&#45;42ad&#45;457e&#45;9463&#45;0a3c5043bfb6</title>
<path fill="none" stroke="black" stroke-dasharray="5,2" d="M1134.31,-72.72C1137.91,-63.99 1141.93,-54.26 1145.55,-45.51"/>
<polygon fill="black" stroke="black" points="1148.83,-46.73 1149.42,-36.15 1142.36,-44.05 1148.83,-46.73"/>
</g>
</g>
</svg>
