<?xml version="1.0" encoding="UTF-8" standalone="no"?>
<!DOCTYPE svg PUBLIC "-//W3C//DTD SVG 1.1//EN"
 "http://www.w3.org/Graphics/SVG/1.1/DTD/svg11.dtd">
<!-- Generated by graphviz version 2.43.0 (0)
 -->
<!-- Title: %3 Pages: 1 -->
<svg width="1267pt" height="238pt"
 viewBox="0.00 0.00 1267.00 237.74" xmlns="http://www.w3.org/2000/svg" xmlns:xlink="http://www.w3.org/1999/xlink">
<g id="graph0" class="graph" transform="scale(1 1) rotate(0) translate(36 201.74)">
<title>%3</title>
<polygon fill="dimgray" stroke="transparent" points="-36,36 -36,-201.74 1231,-201.74 1231,36 -36,36"/>
<text text-anchor="middle" x="597.5" y="-150.54" font-family="Helvetica,sans-Serif" font-size="14.00">Sweep&#39;s Plan &amp; Progress</text>
<!-- start -->
<g id="node1" class="node">
<title>start</title>
</g>
<!-- 8242a9a8&#45;a10d&#45;4071&#45;969a&#45;c8e4467b33fb -->
<g id="node3" class="node">
<title>8242a9a8&#45;a10d&#45;4071&#45;969a&#45;c8e4467b33fb</title>
<ellipse fill="#0ee832" stroke="black" cx="297.5" cy="-99.87" rx="231.86" ry="26.74"/>
<text text-anchor="middle" x="297.5" y="-103.67" font-family="Helvetica,sans-Serif" font-size="14.00">✓ Create</text>
<text text-anchor="middle" x="297.5" y="-88.67" font-family="Helvetica,sans-Serif" font-size="14.00">gh0st&#45;writer/my_custom_blog_generator.php</text>
</g>
<!-- start&#45;&gt;8242a9a8&#45;a10d&#45;4071&#45;969a&#45;c8e4467b33fb -->
<g id="edge6" class="edge">
<title>start&#45;&gt;8242a9a8&#45;a10d&#45;4071&#45;969a&#45;c8e4467b33fb</title>
<path fill="none" stroke="black" d="M14.31,-99.87C17.93,-99.87 33.3,-99.87 55.16,-99.87"/>
<polygon fill="black" stroke="black" points="55.27,-103.37 65.27,-99.87 55.27,-96.37 55.27,-103.37"/>
<text text-anchor="middle" x="39.78" y="-106.67" font-family="Helvetica,sans-Serif" font-size="14.00">Start</text>
</g>
<!-- end -->
<g id="node2" class="node">
<title>end</title>
</g>
<!-- 020c82da&#45;1360&#45;48ba&#45;883b&#45;341ff0d50bd2 -->
<g id="node4" class="node">
<title>020c82da&#45;1360&#45;48ba&#45;883b&#45;341ff0d50bd2</title>
<ellipse fill="white" stroke="black" cx="723.5" cy="-99.87" rx="123.07" ry="26.74"/>
<text text-anchor="middle" x="723.5" y="-103.67" font-family="Helvetica,sans-Serif" font-size="14.00">▶ Modify</text>
<text text-anchor="middle" x="723.5" y="-88.67" font-family="Helvetica,sans-Serif" font-size="14.00">gh0st&#45;writer/TODO.md</text>
</g>
<!-- 8242a9a8&#45;a10d&#45;4071&#45;969a&#45;c8e4467b33fb&#45;&gt;020c82da&#45;1360&#45;48ba&#45;883b&#45;341ff0d50bd2 -->
<g id="edge2" class="edge">
<title>8242a9a8&#45;a10d&#45;4071&#45;969a&#45;c8e4467b33fb&#45;&gt;020c82da&#45;1360&#45;48ba&#45;883b&#45;341ff0d50bd2</title>
<path fill="none" stroke="black" d="M529.64,-99.87C549.83,-99.87 570.02,-99.87 590.21,-99.87"/>
<polygon fill="black" stroke="black" points="590.44,-103.37 600.44,-99.87 590.44,-96.37 590.44,-103.37"/>
</g>
<!-- c512bf3e&#45;37c3&#45;44bf&#45;996c&#45;9b57e3c93874 -->
<g id="node6" class="node">
<title>c512bf3e&#45;37c3&#45;44bf&#45;996c&#45;9b57e3c93874</title>
<polygon fill="yellow" stroke="black" points="523,-36 0,-36 0,0 523,0 523,-36"/>
<text text-anchor="middle" x="261.5" y="-14.3" font-family="Helvetica,sans-Serif" font-size="14.00">⋯ Run GitHub Actions for `gh0st&#45;writer/my_custom_blog_generator.php`</text>
</g>
<!-- 8242a9a8&#45;a10d&#45;4071&#45;969a&#45;c8e4467b33fb&#45;&gt;c512bf3e&#45;37c3&#45;44bf&#45;996c&#45;9b57e3c93874 -->
<g id="edge1" class="edge">
<title>8242a9a8&#45;a10d&#45;4071&#45;969a&#45;c8e4467b33fb&#45;&gt;c512bf3e&#45;37c3&#45;44bf&#45;996c&#45;9b57e3c93874</title>
<path fill="none" stroke="black" stroke-dasharray="5,2" d="M285.71,-72.72C281.78,-63.99 277.39,-54.26 273.45,-45.51"/>
<polygon fill="black" stroke="black" points="276.53,-43.82 269.23,-36.15 270.15,-46.7 276.53,-43.82"/>
</g>
<!-- f8f246cb&#45;f729&#45;44ef&#45;a93c&#45;7c937a5ac1b6 -->
<g id="node5" class="node">
<title>f8f246cb&#45;f729&#45;44ef&#45;a93c&#45;7c937a5ac1b6</title>
<ellipse fill="white" stroke="black" cx="999.5" cy="-99.87" rx="56.64" ry="26.74"/>
<text text-anchor="middle" x="999.5" y="-103.67" font-family="Helvetica,sans-Serif" font-size="14.00">▶ Modify</text>
<text text-anchor="middle" x="999.5" y="-88.67" font-family="Helvetica,sans-Serif" font-size="14.00">specs.txt</text>
</g>
<!-- 020c82da&#45;1360&#45;48ba&#45;883b&#45;341ff0d50bd2&#45;&gt;f8f246cb&#45;f729&#45;44ef&#45;a93c&#45;7c937a5ac1b6 -->
<g id="edge4" class="edge">
<title>020c82da&#45;1360&#45;48ba&#45;883b&#45;341ff0d50bd2&#45;&gt;f8f246cb&#45;f729&#45;44ef&#45;a93c&#45;7c937a5ac1b6</title>
<path fill="none" stroke="black" d="M846.68,-99.87C875.33,-99.87 903.99,-99.87 932.65,-99.87"/>
<polygon fill="black" stroke="black" points="932.79,-103.37 942.79,-99.87 932.79,-96.37 932.79,-103.37"/>
</g>
<!-- 62b73250&#45;36ab&#45;4066&#45;80ea&#45;b2b6a2437409 -->
<g id="node7" class="node">
<title>62b73250&#45;36ab&#45;4066&#45;80ea&#45;b2b6a2437409</title>
<polygon fill="white" stroke="black" points="906,-36 541,-36 541,0 906,0 906,-36"/>
<text text-anchor="middle" x="723.5" y="-14.3" font-family="Helvetica,sans-Serif" font-size="14.00">▶ Run GitHub Actions for `gh0st&#45;writer/TODO.md`</text>
</g>
<!-- 020c82da&#45;1360&#45;48ba&#45;883b&#45;341ff0d50bd2&#45;&gt;62b73250&#45;36ab&#45;4066&#45;80ea&#45;b2b6a2437409 -->
<g id="edge3" class="edge">
<title>020c82da&#45;1360&#45;48ba&#45;883b&#45;341ff0d50bd2&#45;&gt;62b73250&#45;36ab&#45;4066&#45;80ea&#45;b2b6a2437409</title>
<path fill="none" stroke="black" stroke-dasharray="5,2" d="M723.5,-72.72C723.5,-64.27 723.5,-54.89 723.5,-46.36"/>
<polygon fill="black" stroke="black" points="727,-46.15 723.5,-36.15 720,-46.15 727,-46.15"/>
</g>
<!-- f8f246cb&#45;f729&#45;44ef&#45;a93c&#45;7c937a5ac1b6&#45;&gt;end -->
<g id="edge7" class="edge">
<title>f8f246cb&#45;f729&#45;44ef&#45;a93c&#45;7c937a5ac1b6&#45;&gt;end</title>
<path fill="none" stroke="black" d="M1056.33,-99.87C1074.38,-99.87 1092.52,-99.87 1103.63,-99.87"/>
<polygon fill="black" stroke="black" points="1103.75,-103.37 1113.75,-99.87 1103.75,-96.37 1103.75,-103.37"/>
<text text-anchor="middle" x="1085.03" y="-106.67" font-family="Helvetica,sans-Serif" font-size="14.00">Finish</text>
</g>
<!-- fab51d08&#45;e7c3&#45;4d7d&#45;8d5f&#45;35f341ab1d89 -->
<g id="node8" class="node">
<title>fab51d08&#45;e7c3&#45;4d7d&#45;8d5f&#45;35f341ab1d89</title>
<polygon fill="white" stroke="black" points="1195,-36 924,-36 924,0 1195,0 1195,-36"/>
<text text-anchor="middle" x="1059.5" y="-14.3" font-family="Helvetica,sans-Serif" font-size="14.00">▶ Run GitHub Actions for `specs.txt`</text>
</g>
<!-- f8f246cb&#45;f729&#45;44ef&#45;a93c&#45;7c937a5ac1b6&#45;&gt;fab51d08&#45;e7c3&#45;4d7d&#45;8d5f&#45;35f341ab1d89 -->
<g id="edge5" class="edge">
<title>f8f246cb&#45;f729&#45;44ef&#45;a93c&#45;7c937a5ac1b6&#45;&gt;fab51d08&#45;e7c3&#45;4d7d&#45;8d5f&#45;35f341ab1d89</title>
<path fill="none" stroke="black" stroke-dasharray="5,2" d="M1018.16,-74.04C1025.21,-64.64 1033.26,-53.94 1040.36,-44.48"/>
<polygon fill="black" stroke="black" points="1043.35,-46.32 1046.56,-36.22 1037.76,-42.12 1043.35,-46.32"/>
</g>
</g>
</svg>
