<?xml version="1.0" encoding="UTF-8" standalone="no"?>
<!DOCTYPE svg PUBLIC "-//W3C//DTD SVG 1.1//EN"
 "http://www.w3.org/Graphics/SVG/1.1/DTD/svg11.dtd">
<!-- Generated by graphviz version 2.43.0 (0)
 -->
<!-- Title: %3 Pages: 1 -->
<svg width="3044pt" height="238pt"
 viewBox="0.00 0.00 3043.50 237.74" xmlns="http://www.w3.org/2000/svg" xmlns:xlink="http://www.w3.org/1999/xlink">
<g id="graph0" class="graph" transform="scale(1 1) rotate(0) translate(36 201.74)">
<title>%3</title>
<polygon fill="dimgray" stroke="transparent" points="-36,36 -36,-201.74 3007.5,-201.74 3007.5,36 -36,36"/>
<text text-anchor="middle" x="1485.75" y="-150.54" font-family="Helvetica,sans-Serif" font-size="14.00">Sweep&#39;s Plan &amp; Progress</text>
<!-- start -->
<g id="node1" class="node">
<title>start</title>
</g>
<!-- a8553f64&#45;8f3d&#45;4e0c&#45;a8da&#45;399b4727c42c -->
<g id="node3" class="node">
<title>a8553f64&#45;8f3d&#45;4e0c&#45;a8da&#45;399b4727c42c</title>
<ellipse fill="#0ee832" stroke="black" cx="268" cy="-99.87" rx="205.54" ry="26.74"/>
<text text-anchor="middle" x="268" y="-103.67" font-family="Helvetica,sans-Serif" font-size="14.00">✓ Create</text>
<text text-anchor="middle" x="268" y="-88.67" font-family="Helvetica,sans-Serif" font-size="14.00">gh0st&#45;writer/tests/openai_api_tests.php</text>
</g>
<!-- start&#45;&gt;a8553f64&#45;8f3d&#45;4e0c&#45;a8da&#45;399b4727c42c -->
<g id="edge12" class="edge">
<title>start&#45;&gt;a8553f64&#45;8f3d&#45;4e0c&#45;a8da&#45;399b4727c42c</title>
<path fill="none" stroke="black" d="M10.74,-99.87C14.24,-99.87 29.9,-99.87 51.89,-99.87"/>
<polygon fill="black" stroke="black" points="52.05,-103.37 62.05,-99.87 52.05,-96.37 52.05,-103.37"/>
<text text-anchor="middle" x="36.37" y="-106.67" font-family="Helvetica,sans-Serif" font-size="14.00">Start</text>
</g>
<!-- end -->
<g id="node2" class="node">
<title>end</title>
</g>
<!-- 3c9685c6&#45;0207&#45;4e6c&#45;90bc&#45;1ee7e392989d -->
<g id="node4" class="node">
<title>3c9685c6&#45;0207&#45;4e6c&#45;90bc&#45;1ee7e392989d</title>
<ellipse fill="#0ee832" stroke="black" cx="751" cy="-99.87" rx="215.84" ry="26.74"/>
<text text-anchor="middle" x="751" y="-103.67" font-family="Helvetica,sans-Serif" font-size="14.00">✓ Create</text>
<text text-anchor="middle" x="751" y="-88.67" font-family="Helvetica,sans-Serif" font-size="14.00">gh0st&#45;writer/tests/admin_panel_tests.php</text>
</g>
<!-- a8553f64&#45;8f3d&#45;4e0c&#45;a8da&#45;399b4727c42c&#45;&gt;3c9685c6&#45;0207&#45;4e6c&#45;90bc&#45;1ee7e392989d -->
<g id="edge2" class="edge">
<title>a8553f64&#45;8f3d&#45;4e0c&#45;a8da&#45;399b4727c42c&#45;&gt;3c9685c6&#45;0207&#45;4e6c&#45;90bc&#45;1ee7e392989d</title>
<path fill="none" stroke="black" d="M474.12,-99.87C491.15,-99.87 508.18,-99.87 525.21,-99.87"/>
<polygon fill="black" stroke="black" points="525.23,-103.37 535.23,-99.87 525.23,-96.37 525.23,-103.37"/>
</g>
<!-- fafafbe4&#45;ebe2&#45;4a5c&#45;a79e&#45;f208112e7e26 -->
<g id="node9" class="node">
<title>fafafbe4&#45;ebe2&#45;4a5c&#45;a79e&#45;f208112e7e26</title>
<polygon fill="#0ee832" stroke="black" points="484,-36 0,-36 0,0 484,0 484,-36"/>
<text text-anchor="middle" x="242" y="-14.3" font-family="Helvetica,sans-Serif" font-size="14.00">✓ Run GitHub Actions for `gh0st&#45;writer/tests/openai_api_tests.php`</text>
</g>
<!-- a8553f64&#45;8f3d&#45;4e0c&#45;a8da&#45;399b4727c42c&#45;&gt;fafafbe4&#45;ebe2&#45;4a5c&#45;a79e&#45;f208112e7e26 -->
<g id="edge1" class="edge">
<title>a8553f64&#45;8f3d&#45;4e0c&#45;a8da&#45;399b4727c42c&#45;&gt;fafafbe4&#45;ebe2&#45;4a5c&#45;a79e&#45;f208112e7e26</title>
<path fill="none" stroke="black" stroke-dasharray="5,2" d="M259.49,-72.72C256.68,-64.08 253.55,-54.47 250.72,-45.79"/>
<polygon fill="black" stroke="black" points="254.01,-44.57 247.58,-36.15 247.35,-46.74 254.01,-44.57"/>
</g>
<!-- e0a6058f&#45;73d2&#45;43ea&#45;b742&#45;03a9921de343 -->
<g id="node5" class="node">
<title>e0a6058f&#45;73d2&#45;43ea&#45;b742&#45;03a9921de343</title>
<ellipse fill="#0ee832" stroke="black" cx="1294" cy="-99.87" rx="253.7" ry="26.74"/>
<text text-anchor="middle" x="1294" y="-103.67" font-family="Helvetica,sans-Serif" font-size="14.00">✓ Create</text>
<text text-anchor="middle" x="1294" y="-88.67" font-family="Helvetica,sans-Serif" font-size="14.00">gh0st&#45;writer/tests/ai_content_detection_tests.php</text>
</g>
<!-- 3c9685c6&#45;0207&#45;4e6c&#45;90bc&#45;1ee7e392989d&#45;&gt;e0a6058f&#45;73d2&#45;43ea&#45;b742&#45;03a9921de343 -->
<g id="edge4" class="edge">
<title>3c9685c6&#45;0207&#45;4e6c&#45;90bc&#45;1ee7e392989d&#45;&gt;e0a6058f&#45;73d2&#45;43ea&#45;b742&#45;03a9921de343</title>
<path fill="none" stroke="black" d="M966.82,-99.87C987.88,-99.87 1008.93,-99.87 1029.99,-99.87"/>
<polygon fill="black" stroke="black" points="1029.99,-103.37 1039.99,-99.87 1029.99,-96.37 1029.99,-103.37"/>
</g>
<!-- 77ccb870&#45;60b6&#45;4f96&#45;a4f1&#45;fe954e5c380a -->
<g id="node10" class="node">
<title>77ccb870&#45;60b6&#45;4f96&#45;a4f1&#45;fe954e5c380a</title>
<polygon fill="#0ee832" stroke="black" points="1000,-36 502,-36 502,0 1000,0 1000,-36"/>
<text text-anchor="middle" x="751" y="-14.3" font-family="Helvetica,sans-Serif" font-size="14.00">✓ Run GitHub Actions for `gh0st&#45;writer/tests/admin_panel_tests.php`</text>
</g>
<!-- 3c9685c6&#45;0207&#45;4e6c&#45;90bc&#45;1ee7e392989d&#45;&gt;77ccb870&#45;60b6&#45;4f96&#45;a4f1&#45;fe954e5c380a -->
<g id="edge3" class="edge">
<title>3c9685c6&#45;0207&#45;4e6c&#45;90bc&#45;1ee7e392989d&#45;&gt;77ccb870&#45;60b6&#45;4f96&#45;a4f1&#45;fe954e5c380a</title>
<path fill="none" stroke="black" stroke-dasharray="5,2" d="M751,-72.72C751,-64.27 751,-54.89 751,-46.36"/>
<polygon fill="black" stroke="black" points="754.5,-46.15 751,-36.15 747.5,-46.15 754.5,-46.15"/>
</g>
<!-- aca0abe0&#45;8a70&#45;4424&#45;81fa&#45;974e0a32b988 -->
<g id="node6" class="node">
<title>aca0abe0&#45;8a70&#45;4424&#45;81fa&#45;974e0a32b988</title>
<ellipse fill="#0ee832" stroke="black" cx="1822" cy="-99.87" rx="192.17" ry="26.74"/>
<text text-anchor="middle" x="1822" y="-103.67" font-family="Helvetica,sans-Serif" font-size="14.00">✓ Modify</text>
<text text-anchor="middle" x="1822" y="-88.67" font-family="Helvetica,sans-Serif" font-size="14.00">gh0st&#45;writer/gpt_blog_generator.php</text>
</g>
<!-- e0a6058f&#45;73d2&#45;43ea&#45;b742&#45;03a9921de343&#45;&gt;aca0abe0&#45;8a70&#45;4424&#45;81fa&#45;974e0a32b988 -->
<g id="edge6" class="edge">
<title>e0a6058f&#45;73d2&#45;43ea&#45;b742&#45;03a9921de343&#45;&gt;aca0abe0&#45;8a70&#45;4424&#45;81fa&#45;974e0a32b988</title>
<path fill="none" stroke="black" d="M1547.95,-99.87C1571.75,-99.87 1595.56,-99.87 1619.37,-99.87"/>
<polygon fill="black" stroke="black" points="1619.57,-103.37 1629.57,-99.87 1619.57,-96.37 1619.57,-103.37"/>
</g>
<!-- 43b70343&#45;b3a9&#45;4039&#45;8a20&#45;aab593151d8e -->
<g id="node11" class="node">
<title>43b70343&#45;b3a9&#45;4039&#45;8a20&#45;aab593151d8e</title>
<polygon fill="#0ee832" stroke="black" points="1570,-36 1018,-36 1018,0 1570,0 1570,-36"/>
<text text-anchor="middle" x="1294" y="-14.3" font-family="Helvetica,sans-Serif" font-size="14.00">✓ Run GitHub Actions for `gh0st&#45;writer/tests/ai_content_detection_tests.php`</text>
</g>
<!-- e0a6058f&#45;73d2&#45;43ea&#45;b742&#45;03a9921de343&#45;&gt;43b70343&#45;b3a9&#45;4039&#45;8a20&#45;aab593151d8e -->
<g id="edge5" class="edge">
<title>e0a6058f&#45;73d2&#45;43ea&#45;b742&#45;03a9921de343&#45;&gt;43b70343&#45;b3a9&#45;4039&#45;8a20&#45;aab593151d8e</title>
<path fill="none" stroke="black" stroke-dasharray="5,2" d="M1294,-72.72C1294,-64.27 1294,-54.89 1294,-46.36"/>
<polygon fill="black" stroke="black" points="1297.5,-46.15 1294,-36.15 1290.5,-46.15 1297.5,-46.15"/>
</g>
<!-- 32a1ac1e&#45;4a16&#45;4956&#45;8103&#45;6ef84b96a874 -->
<g id="node7" class="node">
<title>32a1ac1e&#45;4a16&#45;4956&#45;8103&#45;6ef84b96a874</title>
<ellipse fill="white" stroke="black" cx="2282" cy="-99.87" rx="159.2" ry="26.74"/>
<text text-anchor="middle" x="2282" y="-103.67" font-family="Helvetica,sans-Serif" font-size="14.00">▶ Modify</text>
<text text-anchor="middle" x="2282" y="-88.67" font-family="Helvetica,sans-Serif" font-size="14.00">gh0st&#45;writer/admin&#45;panel.php</text>
</g>
<!-- aca0abe0&#45;8a70&#45;4424&#45;81fa&#45;974e0a32b988&#45;&gt;32a1ac1e&#45;4a16&#45;4956&#45;8103&#45;6ef84b96a874 -->
<g id="edge8" class="edge">
<title>aca0abe0&#45;8a70&#45;4424&#45;81fa&#45;974e0a32b988&#45;&gt;32a1ac1e&#45;4a16&#45;4956&#45;8103&#45;6ef84b96a874</title>
<path fill="none" stroke="black" d="M2014.71,-99.87C2047.36,-99.87 2080,-99.87 2112.65,-99.87"/>
<polygon fill="black" stroke="black" points="2112.78,-103.37 2122.78,-99.87 2112.78,-96.37 2112.78,-103.37"/>
</g>
<!-- 099e5eee&#45;db16&#45;4268&#45;8c66&#45;3fb8c1b76837 -->
<g id="node12" class="node">
<title>099e5eee&#45;db16&#45;4268&#45;8c66&#45;3fb8c1b76837</title>
<polygon fill="yellow" stroke="black" points="2055.5,-36 1588.5,-36 1588.5,0 2055.5,0 2055.5,-36"/>
<text text-anchor="middle" x="1822" y="-14.3" font-family="Helvetica,sans-Serif" font-size="14.00">⋯ Run GitHub Actions for `gh0st&#45;writer/gpt_blog_generator.php`</text>
</g>
<!-- aca0abe0&#45;8a70&#45;4424&#45;81fa&#45;974e0a32b988&#45;&gt;099e5eee&#45;db16&#45;4268&#45;8c66&#45;3fb8c1b76837 -->
<g id="edge7" class="edge">
<title>aca0abe0&#45;8a70&#45;4424&#45;81fa&#45;974e0a32b988&#45;&gt;099e5eee&#45;db16&#45;4268&#45;8c66&#45;3fb8c1b76837</title>
<path fill="none" stroke="black" stroke-dasharray="5,2" d="M1822,-72.72C1822,-64.27 1822,-54.89 1822,-46.36"/>
<polygon fill="black" stroke="black" points="1825.5,-46.15 1822,-36.15 1818.5,-46.15 1825.5,-46.15"/>
</g>
<!-- df22de0e&#45;1955&#45;4779&#45;99af&#45;e61e68e62f25 -->
<g id="node8" class="node">
<title>df22de0e&#45;1955&#45;4779&#45;99af&#45;e61e68e62f25</title>
<ellipse fill="white" stroke="black" cx="2705" cy="-99.87" rx="192.17" ry="26.74"/>
<text text-anchor="middle" x="2705" y="-103.67" font-family="Helvetica,sans-Serif" font-size="14.00">▶ Modify</text>
<text text-anchor="middle" x="2705" y="-88.67" font-family="Helvetica,sans-Serif" font-size="14.00">gh0st&#45;writer/gpt_blog_generator.php</text>
</g>
<!-- 32a1ac1e&#45;4a16&#45;4956&#45;8103&#45;6ef84b96a874&#45;&gt;df22de0e&#45;1955&#45;4779&#45;99af&#45;e61e68e62f25 -->
<g id="edge10" class="edge">
<title>32a1ac1e&#45;4a16&#45;4956&#45;8103&#45;6ef84b96a874&#45;&gt;df22de0e&#45;1955&#45;4779&#45;99af&#45;e61e68e62f25</title>
<path fill="none" stroke="black" d="M2441.45,-99.87C2461.71,-99.87 2481.96,-99.87 2502.22,-99.87"/>
<polygon fill="black" stroke="black" points="2502.49,-103.37 2512.49,-99.87 2502.49,-96.37 2502.49,-103.37"/>
</g>
<!-- b2546835&#45;a4b0&#45;4914&#45;bba2&#45;fd80d6f5e19d -->
<g id="node13" class="node">
<title>b2546835&#45;a4b0&#45;4914&#45;bba2&#45;fd80d6f5e19d</title>
<polygon fill="white" stroke="black" points="2490,-36 2074,-36 2074,0 2490,0 2490,-36"/>
<text text-anchor="middle" x="2282" y="-14.3" font-family="Helvetica,sans-Serif" font-size="14.00">▶ Run GitHub Actions for `gh0st&#45;writer/admin&#45;panel.php`</text>
</g>
<!-- 32a1ac1e&#45;4a16&#45;4956&#45;8103&#45;6ef84b96a874&#45;&gt;b2546835&#45;a4b0&#45;4914&#45;bba2&#45;fd80d6f5e19d -->
<g id="edge9" class="edge">
<title>32a1ac1e&#45;4a16&#45;4956&#45;8103&#45;6ef84b96a874&#45;&gt;b2546835&#45;a4b0&#45;4914&#45;bba2&#45;fd80d6f5e19d</title>
<path fill="none" stroke="black" stroke-dasharray="5,2" d="M2282,-72.72C2282,-64.27 2282,-54.89 2282,-46.36"/>
<polygon fill="black" stroke="black" points="2285.5,-46.15 2282,-36.15 2278.5,-46.15 2285.5,-46.15"/>
</g>
<!-- df22de0e&#45;1955&#45;4779&#45;99af&#45;e61e68e62f25&#45;&gt;end -->
<g id="edge13" class="edge">
<title>df22de0e&#45;1955&#45;4779&#45;99af&#45;e61e68e62f25&#45;&gt;end</title>
<path fill="none" stroke="black" d="M2897.64,-99.87C2917.42,-99.87 2933.96,-99.87 2944.12,-99.87"/>
<polygon fill="black" stroke="black" points="2944.38,-103.37 2954.38,-99.87 2944.38,-96.37 2944.38,-103.37"/>
<text text-anchor="middle" x="2925.92" y="-106.67" font-family="Helvetica,sans-Serif" font-size="14.00">Finish</text>
</g>
<!-- e888e6c6&#45;d30e&#45;4992&#45;b4d3&#45;d4eb23037171 -->
<g id="node14" class="node">
<title>e888e6c6&#45;d30e&#45;4992&#45;b4d3&#45;d4eb23037171</title>
<polygon fill="white" stroke="black" points="2971.5,-36 2508.5,-36 2508.5,0 2971.5,0 2971.5,-36"/>
<text text-anchor="middle" x="2740" y="-14.3" font-family="Helvetica,sans-Serif" font-size="14.00">▶ Run GitHub Actions for `gh0st&#45;writer/gpt_blog_generator.php`</text>
</g>
<!-- df22de0e&#45;1955&#45;4779&#45;99af&#45;e61e68e62f25&#45;&gt;e888e6c6&#45;d30e&#45;4992&#45;b4d3&#45;d4eb23037171 -->
<g id="edge11" class="edge">
<title>df22de0e&#45;1955&#45;4779&#45;99af&#45;e61e68e62f25&#45;&gt;e888e6c6&#45;d30e&#45;4992&#45;b4d3&#45;d4eb23037171</title>
<path fill="none" stroke="black" stroke-dasharray="5,2" d="M2716.46,-72.72C2720.28,-63.99 2724.55,-54.26 2728.38,-45.51"/>
<polygon fill="black" stroke="black" points="2731.68,-46.71 2732.49,-36.15 2725.27,-43.9 2731.68,-46.71"/>
</g>
</g>
</svg>
