<?xml version="1.0" encoding="UTF-8" standalone="no"?>
<!DOCTYPE svg PUBLIC "-//W3C//DTD SVG 1.1//EN"
 "http://www.w3.org/Graphics/SVG/1.1/DTD/svg11.dtd">
<!-- Generated by graphviz version 2.43.0 (0)
 -->
<!-- Title: %3 Pages: 1 -->
<svg width="1470pt" height="238pt"
 viewBox="0.00 0.00 1470.00 237.74" xmlns="http://www.w3.org/2000/svg" xmlns:xlink="http://www.w3.org/1999/xlink">
<g id="graph0" class="graph" transform="scale(1 1) rotate(0) translate(36 201.74)">
<title>%3</title>
<polygon fill="dimgray" stroke="transparent" points="-36,36 -36,-201.74 1434,-201.74 1434,36 -36,36"/>
<text text-anchor="middle" x="699" y="-150.54" font-family="Helvetica,sans-Serif" font-size="14.00">Sweep&#39;s Plan &amp; Progress</text>
<!-- start -->
<g id="node1" class="node">
<title>start</title>
</g>
<!-- d4429606&#45;4d19&#45;49df&#45;81e7&#45;3eabb8a9ce2c -->
<g id="node3" class="node">
<title>d4429606&#45;4d19&#45;49df&#45;81e7&#45;3eabb8a9ce2c</title>
<ellipse fill="#0ee832" stroke="black" cx="267" cy="-99.87" rx="192.17" ry="26.74"/>
<text text-anchor="middle" x="267" y="-103.67" font-family="Helvetica,sans-Serif" font-size="14.00">✓ Modify</text>
<text text-anchor="middle" x="267" y="-88.67" font-family="Helvetica,sans-Serif" font-size="14.00">gh0st&#45;writer/gpt_blog_generator.php</text>
</g>
<!-- start&#45;&gt;d4429606&#45;4d19&#45;49df&#45;81e7&#45;3eabb8a9ce2c -->
<g id="edge6" class="edge">
<title>start&#45;&gt;d4429606&#45;4d19&#45;49df&#45;81e7&#45;3eabb8a9ce2c</title>
<path fill="none" stroke="black" d="M23.7,-99.87C27.11,-99.87 42.7,-99.87 64.47,-99.87"/>
<polygon fill="black" stroke="black" points="64.52,-103.37 74.52,-99.87 64.52,-96.37 64.52,-103.37"/>
<text text-anchor="middle" x="49.08" y="-106.67" font-family="Helvetica,sans-Serif" font-size="14.00">Start</text>
</g>
<!-- end -->
<g id="node2" class="node">
<title>end</title>
</g>
<!-- 85525d33&#45;88ee&#45;4cc3&#45;90ec&#45;d9df7090d013 -->
<g id="node4" class="node">
<title>85525d33&#45;88ee&#45;4cc3&#45;90ec&#45;d9df7090d013</title>
<ellipse fill="white" stroke="black" cx="690" cy="-99.87" rx="159.2" ry="26.74"/>
<text text-anchor="middle" x="690" y="-103.67" font-family="Helvetica,sans-Serif" font-size="14.00">▶ Modify</text>
<text text-anchor="middle" x="690" y="-88.67" font-family="Helvetica,sans-Serif" font-size="14.00">gh0st&#45;writer/admin&#45;panel.php</text>
</g>
<!-- d4429606&#45;4d19&#45;49df&#45;81e7&#45;3eabb8a9ce2c&#45;&gt;85525d33&#45;88ee&#45;4cc3&#45;90ec&#45;d9df7090d013 -->
<g id="edge2" class="edge">
<title>d4429606&#45;4d19&#45;49df&#45;81e7&#45;3eabb8a9ce2c&#45;&gt;85525d33&#45;88ee&#45;4cc3&#45;90ec&#45;d9df7090d013</title>
<path fill="none" stroke="black" d="M459.5,-99.87C479.87,-99.87 500.25,-99.87 520.63,-99.87"/>
<polygon fill="black" stroke="black" points="520.63,-103.37 530.63,-99.87 520.63,-96.37 520.63,-103.37"/>
</g>
<!-- e5b6662c&#45;3c55&#45;4b8b&#45;ad3a&#45;6b771c33925b -->
<g id="node6" class="node">
<title>e5b6662c&#45;3c55&#45;4b8b&#45;ad3a&#45;6b771c33925b</title>
<polygon fill="#0ee832" stroke="black" points="464,-36 0,-36 0,0 464,0 464,-36"/>
<text text-anchor="middle" x="232" y="-14.3" font-family="Helvetica,sans-Serif" font-size="14.00">✓ Run GitHub Actions for `gh0st&#45;writer/gpt_blog_generator.php`</text>
</g>
<!-- d4429606&#45;4d19&#45;49df&#45;81e7&#45;3eabb8a9ce2c&#45;&gt;e5b6662c&#45;3c55&#45;4b8b&#45;ad3a&#45;6b771c33925b -->
<g id="edge1" class="edge">
<title>d4429606&#45;4d19&#45;49df&#45;81e7&#45;3eabb8a9ce2c&#45;&gt;e5b6662c&#45;3c55&#45;4b8b&#45;ad3a&#45;6b771c33925b</title>
<path fill="none" stroke="black" stroke-dasharray="5,2" d="M255.54,-72.72C251.72,-63.99 247.45,-54.26 243.62,-45.51"/>
<polygon fill="black" stroke="black" points="246.73,-43.9 239.51,-36.15 240.32,-46.71 246.73,-43.9"/>
</g>
<!-- 5f3f7d1c&#45;ed01&#45;4057&#45;b77d&#45;dbe278bf1a15 -->
<g id="node5" class="node">
<title>5f3f7d1c&#45;ed01&#45;4057&#45;b77d&#45;dbe278bf1a15</title>
<ellipse fill="white" stroke="black" cx="1124" cy="-99.87" rx="205.54" ry="26.74"/>
<text text-anchor="middle" x="1124" y="-103.67" font-family="Helvetica,sans-Serif" font-size="14.00">▶ Modify</text>
<text text-anchor="middle" x="1124" y="-88.67" font-family="Helvetica,sans-Serif" font-size="14.00">gh0st&#45;writer/tests/openai_api_tests.php</text>
</g>
<!-- 85525d33&#45;88ee&#45;4cc3&#45;90ec&#45;d9df7090d013&#45;&gt;5f3f7d1c&#45;ed01&#45;4057&#45;b77d&#45;dbe278bf1a15 -->
<g id="edge4" class="edge">
<title>85525d33&#45;88ee&#45;4cc3&#45;90ec&#45;d9df7090d013&#45;&gt;5f3f7d1c&#45;ed01&#45;4057&#45;b77d&#45;dbe278bf1a15</title>
<path fill="none" stroke="black" d="M849.36,-99.87C868.85,-99.87 888.34,-99.87 907.83,-99.87"/>
<polygon fill="black" stroke="black" points="908.02,-103.37 918.02,-99.87 908.02,-96.37 908.02,-103.37"/>
</g>
<!-- f13cce88&#45;5d21&#45;43bd&#45;80e6&#45;b99c6ffdb0e3 -->
<g id="node7" class="node">
<title>f13cce88&#45;5d21&#45;43bd&#45;80e6&#45;b99c6ffdb0e3</title>
<polygon fill="white" stroke="black" points="898,-36 482,-36 482,0 898,0 898,-36"/>
<text text-anchor="middle" x="690" y="-14.3" font-family="Helvetica,sans-Serif" font-size="14.00">▶ Run GitHub Actions for `gh0st&#45;writer/admin&#45;panel.php`</text>
</g>
<!-- 85525d33&#45;88ee&#45;4cc3&#45;90ec&#45;d9df7090d013&#45;&gt;f13cce88&#45;5d21&#45;43bd&#45;80e6&#45;b99c6ffdb0e3 -->
<g id="edge3" class="edge">
<title>85525d33&#45;88ee&#45;4cc3&#45;90ec&#45;d9df7090d013&#45;&gt;f13cce88&#45;5d21&#45;43bd&#45;80e6&#45;b99c6ffdb0e3</title>
<path fill="none" stroke="black" stroke-dasharray="5,2" d="M690,-72.72C690,-64.27 690,-54.89 690,-46.36"/>
<polygon fill="black" stroke="black" points="693.5,-46.15 690,-36.15 686.5,-46.15 693.5,-46.15"/>
</g>
<!-- 5f3f7d1c&#45;ed01&#45;4057&#45;b77d&#45;dbe278bf1a15&#45;&gt;end -->
<g id="edge7" class="edge">
<title>5f3f7d1c&#45;ed01&#45;4057&#45;b77d&#45;dbe278bf1a15&#45;&gt;end</title>
<path fill="none" stroke="black" d="M1330.06,-99.87C1350.13,-99.87 1366.82,-99.87 1377.05,-99.87"/>
<polygon fill="black" stroke="black" points="1377.37,-103.37 1387.37,-99.87 1377.37,-96.37 1377.37,-103.37"/>
<text text-anchor="middle" x="1358.63" y="-106.67" font-family="Helvetica,sans-Serif" font-size="14.00">Finish</text>
</g>
<!-- 4a96a134&#45;42ad&#45;457e&#45;9463&#45;0a3c5043bfb6 -->
<g id="node8" class="node">
<title>4a96a134&#45;42ad&#45;457e&#45;9463&#45;0a3c5043bfb6</title>
<polygon fill="white" stroke="black" points="1398,-36 916,-36 916,0 1398,0 1398,-36"/>
<text text-anchor="middle" x="1157" y="-14.3" font-family="Helvetica,sans-Serif" font-size="14.00">▶ Run GitHub Actions for `gh0st&#45;writer/tests/openai_api_tests.php`</text>
</g>
<!-- 5f3f7d1c&#45;ed01&#45;4057&#45;b77d&#45;dbe278bf1a15&#45;&gt;4a96a134&#45;42ad&#45;457e&#45;9463&#45;0a3c5043bfb6 -->
<g id="edge5" class="edge">
<title>5f3f7d1c&#45;ed01&#45;4057&#45;b77d&#45;dbe278bf1a15&#45;&gt;4a96a134&#45;42ad&#45;457e&#45;9463&#45;0a3c5043bfb6</title>
<path fill="none" stroke="black" stroke-dasharray="5,2" d="M1134.81,-72.72C1138.41,-63.99 1142.43,-54.26 1146.05,-45.51"/>
<polygon fill="black" stroke="black" points="1149.33,-46.73 1149.92,-36.15 1142.86,-44.05 1149.33,-46.73"/>
</g>
</g>
</svg>
