<?xml version="1.0" encoding="UTF-8" standalone="no"?>
<!DOCTYPE svg PUBLIC "-//W3C//DTD SVG 1.1//EN"
 "http://www.w3.org/Graphics/SVG/1.1/DTD/svg11.dtd">
<!-- Generated by graphviz version 2.43.0 (0)
 -->
<!-- Title: %3 Pages: 1 -->
<svg width="2188pt" height="238pt"
 viewBox="0.00 0.00 2188.00 237.74" xmlns="http://www.w3.org/2000/svg" xmlns:xlink="http://www.w3.org/1999/xlink">
<g id="graph0" class="graph" transform="scale(1 1) rotate(0) translate(36 201.74)">
<title>%3</title>
<polygon fill="dimgray" stroke="transparent" points="-36,36 -36,-201.74 2152,-201.74 2152,36 -36,36"/>
<text text-anchor="middle" x="1058" y="-150.54" font-family="Helvetica,sans-Serif" font-size="14.00">Sweep&#39;s Plan &amp; Progress</text>
<!-- start -->
<g id="node1" class="node">
<title>start</title>
</g>
<!-- 4b4af4b2&#45;0a76&#45;435c&#45;a62d&#45;430c339d9fd4 -->
<g id="node3" class="node">
<title>4b4af4b2&#45;0a76&#45;435c&#45;a62d&#45;430c339d9fd4</title>
<ellipse fill="yellow" stroke="black" cx="257.5" cy="-99.87" rx="147.57" ry="26.74"/>
<text text-anchor="middle" x="257.5" y="-103.67" font-family="Helvetica,sans-Serif" font-size="14.00">⋯ Modify</text>
<text text-anchor="middle" x="257.5" y="-88.67" font-family="Helvetica,sans-Serif" font-size="14.00">blog_generator_prompts.txt</text>
</g>
<!-- start&#45;&gt;4b4af4b2&#45;0a76&#45;435c&#45;a62d&#45;430c339d9fd4 -->
<g id="edge12" class="edge">
<title>start&#45;&gt;4b4af4b2&#45;0a76&#45;435c&#45;a62d&#45;430c339d9fd4</title>
<path fill="none" stroke="black" d="M58.07,-99.87C61.27,-99.87 77.5,-99.87 99.44,-99.87"/>
<polygon fill="black" stroke="black" points="99.53,-103.37 109.53,-99.87 99.53,-96.37 99.53,-103.37"/>
<text text-anchor="middle" x="83.86" y="-106.67" font-family="Helvetica,sans-Serif" font-size="14.00">Start</text>
</g>
<!-- end -->
<g id="node2" class="node">
<title>end</title>
</g>
<!-- 422cc47d&#45;5bb6&#45;4898&#45;aa27&#45;da2dfd0d76e3 -->
<g id="node4" class="node">
<title>422cc47d&#45;5bb6&#45;4898&#45;aa27&#45;da2dfd0d76e3</title>
<ellipse fill="white" stroke="black" cx="554.5" cy="-99.87" rx="56.64" ry="26.74"/>
<text text-anchor="middle" x="554.5" y="-103.67" font-family="Helvetica,sans-Serif" font-size="14.00">▶ Modify</text>
<text text-anchor="middle" x="554.5" y="-88.67" font-family="Helvetica,sans-Serif" font-size="14.00">specs.txt</text>
</g>
<!-- 4b4af4b2&#45;0a76&#45;435c&#45;a62d&#45;430c339d9fd4&#45;&gt;422cc47d&#45;5bb6&#45;4898&#45;aa27&#45;da2dfd0d76e3 -->
<g id="edge2" class="edge">
<title>4b4af4b2&#45;0a76&#45;435c&#45;a62d&#45;430c339d9fd4&#45;&gt;422cc47d&#45;5bb6&#45;4898&#45;aa27&#45;da2dfd0d76e3</title>
<path fill="none" stroke="black" d="M405.42,-99.87C432.82,-99.87 460.22,-99.87 487.63,-99.87"/>
<polygon fill="black" stroke="black" points="487.72,-103.37 497.72,-99.87 487.72,-96.37 487.72,-103.37"/>
</g>
<!-- f4e6c906&#45;1b2c&#45;4cd4&#45;aeb4&#45;101802814467 -->
<g id="node9" class="node">
<title>f4e6c906&#45;1b2c&#45;4cd4&#45;aeb4&#45;101802814467</title>
<polygon fill="white" stroke="black" points="401,-36 0,-36 0,0 401,0 401,-36"/>
<text text-anchor="middle" x="200.5" y="-14.3" font-family="Helvetica,sans-Serif" font-size="14.00">▶ Run GitHub Actions for `blog_generator_prompts.txt`</text>
</g>
<!-- 4b4af4b2&#45;0a76&#45;435c&#45;a62d&#45;430c339d9fd4&#45;&gt;f4e6c906&#45;1b2c&#45;4cd4&#45;aeb4&#45;101802814467 -->
<g id="edge1" class="edge">
<title>4b4af4b2&#45;0a76&#45;435c&#45;a62d&#45;430c339d9fd4&#45;&gt;f4e6c906&#45;1b2c&#45;4cd4&#45;aeb4&#45;101802814467</title>
<path fill="none" stroke="black" stroke-dasharray="5,2" d="M239.15,-73.16C232.64,-64.04 225.32,-53.77 218.81,-44.65"/>
<polygon fill="black" stroke="black" points="221.53,-42.44 212.87,-36.34 215.83,-46.51 221.53,-42.44"/>
</g>
<!-- ff5ce07b&#45;090e&#45;4b20&#45;b514&#45;b4c768c0d602 -->
<g id="node5" class="node">
<title>ff5ce07b&#45;090e&#45;4b20&#45;b514&#45;b4c768c0d602</title>
<ellipse fill="white" stroke="black" cx="874.5" cy="-99.87" rx="100.32" ry="26.74"/>
<text text-anchor="middle" x="874.5" y="-103.67" font-family="Helvetica,sans-Serif" font-size="14.00">▶ Create</text>
<text text-anchor="middle" x="874.5" y="-88.67" font-family="Helvetica,sans-Serif" font-size="14.00">blog_generator.py</text>
</g>
<!-- 422cc47d&#45;5bb6&#45;4898&#45;aa27&#45;da2dfd0d76e3&#45;&gt;ff5ce07b&#45;090e&#45;4b20&#45;b514&#45;b4c768c0d602 -->
<g id="edge4" class="edge">
<title>422cc47d&#45;5bb6&#45;4898&#45;aa27&#45;da2dfd0d76e3&#45;&gt;ff5ce07b&#45;090e&#45;4b20&#45;b514&#45;b4c768c0d602</title>
<path fill="none" stroke="black" d="M611.38,-99.87C662.2,-99.87 713.03,-99.87 763.86,-99.87"/>
<polygon fill="black" stroke="black" points="764.03,-103.37 774.03,-99.87 764.03,-96.37 764.03,-103.37"/>
</g>
<!-- 47f91261&#45;3a7b&#45;4973&#45;b81a&#45;edaf21db9c1d -->
<g id="node10" class="node">
<title>47f91261&#45;3a7b&#45;4973&#45;b81a&#45;edaf21db9c1d</title>
<polygon fill="white" stroke="black" points="690,-36 419,-36 419,0 690,0 690,-36"/>
<text text-anchor="middle" x="554.5" y="-14.3" font-family="Helvetica,sans-Serif" font-size="14.00">▶ Run GitHub Actions for `specs.txt`</text>
</g>
<!-- 422cc47d&#45;5bb6&#45;4898&#45;aa27&#45;da2dfd0d76e3&#45;&gt;47f91261&#45;3a7b&#45;4973&#45;b81a&#45;edaf21db9c1d -->
<g id="edge3" class="edge">
<title>422cc47d&#45;5bb6&#45;4898&#45;aa27&#45;da2dfd0d76e3&#45;&gt;47f91261&#45;3a7b&#45;4973&#45;b81a&#45;edaf21db9c1d</title>
<path fill="none" stroke="black" stroke-dasharray="5,2" d="M554.5,-72.72C554.5,-64.27 554.5,-54.89 554.5,-46.36"/>
<polygon fill="black" stroke="black" points="558,-46.15 554.5,-36.15 551,-46.15 558,-46.15"/>
</g>
<!-- 8770978c&#45;79c4&#45;4b41&#45;a8a0&#45;86bdec102907 -->
<g id="node6" class="node">
<title>8770978c&#45;79c4&#45;4b41&#45;a8a0&#45;86bdec102907</title>
<ellipse fill="white" stroke="black" cx="1232.5" cy="-99.87" rx="109.7" ry="26.74"/>
<text text-anchor="middle" x="1232.5" y="-103.67" font-family="Helvetica,sans-Serif" font-size="14.00">▶ Create</text>
<text text-anchor="middle" x="1232.5" y="-88.67" font-family="Helvetica,sans-Serif" font-size="14.00">content_curation.py</text>
</g>
<!-- ff5ce07b&#45;090e&#45;4b20&#45;b514&#45;b4c768c0d602&#45;&gt;8770978c&#45;79c4&#45;4b41&#45;a8a0&#45;86bdec102907 -->
<g id="edge6" class="edge">
<title>ff5ce07b&#45;090e&#45;4b20&#45;b514&#45;b4c768c0d602&#45;&gt;8770978c&#45;79c4&#45;4b41&#45;a8a0&#45;86bdec102907</title>
<path fill="none" stroke="black" d="M975.19,-99.87C1020.99,-99.87 1066.8,-99.87 1112.61,-99.87"/>
<polygon fill="black" stroke="black" points="1112.69,-103.37 1122.69,-99.87 1112.69,-96.37 1112.69,-103.37"/>
</g>
<!-- 2c9abb09&#45;2828&#45;46b9&#45;80dc&#45;85ff910775f3 -->
<g id="node11" class="node">
<title>2c9abb09&#45;2828&#45;46b9&#45;80dc&#45;85ff910775f3</title>
<polygon fill="white" stroke="black" points="1041,-36 708,-36 708,0 1041,0 1041,-36"/>
<text text-anchor="middle" x="874.5" y="-14.3" font-family="Helvetica,sans-Serif" font-size="14.00">▶ Run GitHub Actions for `blog_generator.py`</text>
</g>
<!-- ff5ce07b&#45;090e&#45;4b20&#45;b514&#45;b4c768c0d602&#45;&gt;2c9abb09&#45;2828&#45;46b9&#45;80dc&#45;85ff910775f3 -->
<g id="edge5" class="edge">
<title>ff5ce07b&#45;090e&#45;4b20&#45;b514&#45;b4c768c0d602&#45;&gt;2c9abb09&#45;2828&#45;46b9&#45;80dc&#45;85ff910775f3</title>
<path fill="none" stroke="black" stroke-dasharray="5,2" d="M874.5,-72.72C874.5,-64.27 874.5,-54.89 874.5,-46.36"/>
<polygon fill="black" stroke="black" points="878,-46.15 874.5,-36.15 871,-46.15 878,-46.15"/>
</g>
<!-- b50bff69&#45;4916&#45;44e6&#45;8579&#45;da80d36ae11a -->
<g id="node7" class="node">
<title>b50bff69&#45;4916&#45;44e6&#45;8579&#45;da80d36ae11a</title>
<ellipse fill="white" stroke="black" cx="1596.5" cy="-99.87" rx="108.79" ry="26.74"/>
<text text-anchor="middle" x="1596.5" y="-103.67" font-family="Helvetica,sans-Serif" font-size="14.00">▶ Create</text>
<text text-anchor="middle" x="1596.5" y="-88.67" font-family="Helvetica,sans-Serif" font-size="14.00">content_analysis.py</text>
</g>
<!-- 8770978c&#45;79c4&#45;4b41&#45;a8a0&#45;86bdec102907&#45;&gt;b50bff69&#45;4916&#45;44e6&#45;8579&#45;da80d36ae11a -->
<g id="edge8" class="edge">
<title>8770978c&#45;79c4&#45;4b41&#45;a8a0&#45;86bdec102907&#45;&gt;b50bff69&#45;4916&#45;44e6&#45;8579&#45;da80d36ae11a</title>
<path fill="none" stroke="black" d="M1342.34,-99.87C1387.26,-99.87 1432.18,-99.87 1477.1,-99.87"/>
<polygon fill="black" stroke="black" points="1477.29,-103.37 1487.29,-99.87 1477.29,-96.37 1477.29,-103.37"/>
</g>
<!-- a7989308&#45;5499&#45;43c3&#45;a0f7&#45;31820f76e9ef -->
<g id="node12" class="node">
<title>a7989308&#45;5499&#45;43c3&#45;a0f7&#45;31820f76e9ef</title>
<polygon fill="white" stroke="black" points="1405.5,-36 1059.5,-36 1059.5,0 1405.5,0 1405.5,-36"/>
<text text-anchor="middle" x="1232.5" y="-14.3" font-family="Helvetica,sans-Serif" font-size="14.00">▶ Run GitHub Actions for `content_curation.py`</text>
</g>
<!-- 8770978c&#45;79c4&#45;4b41&#45;a8a0&#45;86bdec102907&#45;&gt;a7989308&#45;5499&#45;43c3&#45;a0f7&#45;31820f76e9ef -->
<g id="edge7" class="edge">
<title>8770978c&#45;79c4&#45;4b41&#45;a8a0&#45;86bdec102907&#45;&gt;a7989308&#45;5499&#45;43c3&#45;a0f7&#45;31820f76e9ef</title>
<path fill="none" stroke="black" stroke-dasharray="5,2" d="M1232.5,-72.72C1232.5,-64.27 1232.5,-54.89 1232.5,-46.36"/>
<polygon fill="black" stroke="black" points="1236,-46.15 1232.5,-36.15 1229,-46.15 1236,-46.15"/>
</g>
<!-- a32d6a3f&#45;2afe&#45;456b&#45;9124&#45;363b154b9d63 -->
<g id="node8" class="node">
<title>a32d6a3f&#45;2afe&#45;456b&#45;9124&#45;363b154b9d63</title>
<ellipse fill="white" stroke="black" cx="1894.5" cy="-99.87" rx="96.75" ry="26.74"/>
<text text-anchor="middle" x="1894.5" y="-103.67" font-family="Helvetica,sans-Serif" font-size="14.00">▶ Create</text>
<text text-anchor="middle" x="1894.5" y="-88.67" font-family="Helvetica,sans-Serif" font-size="14.00">user_interface.py</text>
</g>
<!-- b50bff69&#45;4916&#45;44e6&#45;8579&#45;da80d36ae11a&#45;&gt;a32d6a3f&#45;2afe&#45;456b&#45;9124&#45;363b154b9d63 -->
<g id="edge10" class="edge">
<title>b50bff69&#45;4916&#45;44e6&#45;8579&#45;da80d36ae11a&#45;&gt;a32d6a3f&#45;2afe&#45;456b&#45;9124&#45;363b154b9d63</title>
<path fill="none" stroke="black" d="M1705.63,-99.87C1732.9,-99.87 1760.17,-99.87 1787.44,-99.87"/>
<polygon fill="black" stroke="black" points="1787.48,-103.37 1797.48,-99.87 1787.48,-96.37 1787.48,-103.37"/>
</g>
<!-- d6fb941b&#45;3d43&#45;4e8b&#45;87ab&#45;2a57ad57ca4d -->
<g id="node13" class="node">
<title>d6fb941b&#45;3d43&#45;4e8b&#45;87ab&#45;2a57ad57ca4d</title>
<polygon fill="white" stroke="black" points="1769,-36 1424,-36 1424,0 1769,0 1769,-36"/>
<text text-anchor="middle" x="1596.5" y="-14.3" font-family="Helvetica,sans-Serif" font-size="14.00">▶ Run GitHub Actions for `content_analysis.py`</text>
</g>
<!-- b50bff69&#45;4916&#45;44e6&#45;8579&#45;da80d36ae11a&#45;&gt;d6fb941b&#45;3d43&#45;4e8b&#45;87ab&#45;2a57ad57ca4d -->
<g id="edge9" class="edge">
<title>b50bff69&#45;4916&#45;44e6&#45;8579&#45;da80d36ae11a&#45;&gt;d6fb941b&#45;3d43&#45;4e8b&#45;87ab&#45;2a57ad57ca4d</title>
<path fill="none" stroke="black" stroke-dasharray="5,2" d="M1596.5,-72.72C1596.5,-64.27 1596.5,-54.89 1596.5,-46.36"/>
<polygon fill="black" stroke="black" points="1600,-46.15 1596.5,-36.15 1593,-46.15 1600,-46.15"/>
</g>
<!-- a32d6a3f&#45;2afe&#45;456b&#45;9124&#45;363b154b9d63&#45;&gt;end -->
<g id="edge13" class="edge">
<title>a32d6a3f&#45;2afe&#45;456b&#45;9124&#45;363b154b9d63&#45;&gt;end</title>
<path fill="none" stroke="black" d="M1991.78,-99.87C2010.75,-99.87 2028.01,-99.87 2038.62,-99.87"/>
<polygon fill="black" stroke="black" points="2038.82,-103.37 2048.82,-99.87 2038.82,-96.37 2038.82,-103.37"/>
<text text-anchor="middle" x="2020.19" y="-106.67" font-family="Helvetica,sans-Serif" font-size="14.00">Finish</text>
</g>
<!-- 6979fdde&#45;255e&#45;4760&#45;bd2f&#45;406f39172799 -->
<g id="node14" class="node">
<title>6979fdde&#45;255e&#45;4760&#45;bd2f&#45;406f39172799</title>
<polygon fill="white" stroke="black" points="2116,-36 1787,-36 1787,0 2116,0 2116,-36"/>
<text text-anchor="middle" x="1951.5" y="-14.3" font-family="Helvetica,sans-Serif" font-size="14.00">▶ Run GitHub Actions for `user_interface.py`</text>
</g>
<!-- a32d6a3f&#45;2afe&#45;456b&#45;9124&#45;363b154b9d63&#45;&gt;6979fdde&#45;255e&#45;4760&#45;bd2f&#45;406f39172799 -->
<g id="edge11" class="edge">
<title>a32d6a3f&#45;2afe&#45;456b&#45;9124&#45;363b154b9d63&#45;&gt;6979fdde&#45;255e&#45;4760&#45;bd2f&#45;406f39172799</title>
<path fill="none" stroke="black" stroke-dasharray="5,2" d="M1912.85,-73.16C1919.36,-64.04 1926.68,-53.77 1933.19,-44.65"/>
<polygon fill="black" stroke="black" points="1936.17,-46.51 1939.13,-36.34 1930.47,-42.44 1936.17,-46.51"/>
</g>
</g>
</svg>
