<?xml version="1.0" encoding="UTF-8" standalone="no"?>
<!DOCTYPE svg PUBLIC "-//W3C//DTD SVG 1.1//EN"
 "http://www.w3.org/Graphics/SVG/1.1/DTD/svg11.dtd">
<!-- Generated by graphviz version 2.43.0 (0)
 -->
<!-- Title: %3 Pages: 1 -->
<svg width="1269pt" height="238pt"
 viewBox="0.00 0.00 1269.00 237.74" xmlns="http://www.w3.org/2000/svg" xmlns:xlink="http://www.w3.org/1999/xlink">
<g id="graph0" class="graph" transform="scale(1 1) rotate(0) translate(36 201.74)">
<title>%3</title>
<polygon fill="dimgray" stroke="transparent" points="-36,36 -36,-201.74 1233,-201.74 1233,36 -36,36"/>
<text text-anchor="middle" x="598.5" y="-150.54" font-family="Helvetica,sans-Serif" font-size="14.00">Sweep&#39;s Plan &amp; Progress</text>
<!-- start -->
<g id="node1" class="node">
<title>start</title>
</g>
<!-- 8242a9a8&#45;a10d&#45;4071&#45;969a&#45;c8e4467b33fb -->
<g id="node3" class="node">
<title>8242a9a8&#45;a10d&#45;4071&#45;969a&#45;c8e4467b33fb</title>
<ellipse fill="#0ee832" stroke="black" cx="296.5" cy="-99.87" rx="231.86" ry="26.74"/>
<text text-anchor="middle" x="296.5" y="-103.67" font-family="Helvetica,sans-Serif" font-size="14.00">✓ Create</text>
<text text-anchor="middle" x="296.5" y="-88.67" font-family="Helvetica,sans-Serif" font-size="14.00">gh0st&#45;writer/my_custom_blog_generator.php</text>
</g>
<!-- start&#45;&gt;8242a9a8&#45;a10d&#45;4071&#45;969a&#45;c8e4467b33fb -->
<g id="edge6" class="edge">
<title>start&#45;&gt;8242a9a8&#45;a10d&#45;4071&#45;969a&#45;c8e4467b33fb</title>
<path fill="none" stroke="black" d="M13.31,-99.87C16.93,-99.87 32.3,-99.87 54.16,-99.87"/>
<polygon fill="black" stroke="black" points="54.27,-103.37 64.27,-99.87 54.27,-96.37 54.27,-103.37"/>
<text text-anchor="middle" x="38.78" y="-106.67" font-family="Helvetica,sans-Serif" font-size="14.00">Start</text>
</g>
<!-- end -->
<g id="node2" class="node">
<title>end</title>
</g>
<!-- 020c82da&#45;1360&#45;48ba&#45;883b&#45;341ff0d50bd2 -->
<g id="node4" class="node">
<title>020c82da&#45;1360&#45;48ba&#45;883b&#45;341ff0d50bd2</title>
<ellipse fill="#0ee832" stroke="black" cx="723.5" cy="-99.87" rx="123.07" ry="26.74"/>
<text text-anchor="middle" x="723.5" y="-103.67" font-family="Helvetica,sans-Serif" font-size="14.00">✓ Modify</text>
<text text-anchor="middle" x="723.5" y="-88.67" font-family="Helvetica,sans-Serif" font-size="14.00">gh0st&#45;writer/TODO.md</text>
</g>
<!-- 8242a9a8&#45;a10d&#45;4071&#45;969a&#45;c8e4467b33fb&#45;&gt;020c82da&#45;1360&#45;48ba&#45;883b&#45;341ff0d50bd2 -->
<g id="edge2" class="edge">
<title>8242a9a8&#45;a10d&#45;4071&#45;969a&#45;c8e4467b33fb&#45;&gt;020c82da&#45;1360&#45;48ba&#45;883b&#45;341ff0d50bd2</title>
<path fill="none" stroke="black" d="M528.76,-99.87C549.25,-99.87 569.73,-99.87 590.21,-99.87"/>
<polygon fill="black" stroke="black" points="590.27,-103.37 600.27,-99.87 590.27,-96.37 590.27,-103.37"/>
</g>
<!-- c512bf3e&#45;37c3&#45;44bf&#45;996c&#45;9b57e3c93874 -->
<g id="node6" class="node">
<title>c512bf3e&#45;37c3&#45;44bf&#45;996c&#45;9b57e3c93874</title>
<polygon fill="#0ee832" stroke="black" points="521,-36 0,-36 0,0 521,0 521,-36"/>
<text text-anchor="middle" x="260.5" y="-14.3" font-family="Helvetica,sans-Serif" font-size="14.00">✓ Run GitHub Actions for `gh0st&#45;writer/my_custom_blog_generator.php`</text>
</g>
<!-- 8242a9a8&#45;a10d&#45;4071&#45;969a&#45;c8e4467b33fb&#45;&gt;c512bf3e&#45;37c3&#45;44bf&#45;996c&#45;9b57e3c93874 -->
<g id="edge1" class="edge">
<title>8242a9a8&#45;a10d&#45;4071&#45;969a&#45;c8e4467b33fb&#45;&gt;c512bf3e&#45;37c3&#45;44bf&#45;996c&#45;9b57e3c93874</title>
<path fill="none" stroke="black" stroke-dasharray="5,2" d="M284.71,-72.72C280.78,-63.99 276.39,-54.26 272.45,-45.51"/>
<polygon fill="black" stroke="black" points="275.53,-43.82 268.23,-36.15 269.15,-46.7 275.53,-43.82"/>
</g>
<!-- f8f246cb&#45;f729&#45;44ef&#45;a93c&#45;7c937a5ac1b6 -->
<g id="node5" class="node">
<title>f8f246cb&#45;f729&#45;44ef&#45;a93c&#45;7c937a5ac1b6</title>
<ellipse fill="white" stroke="black" cx="1000.5" cy="-99.87" rx="56.64" ry="26.74"/>
<text text-anchor="middle" x="1000.5" y="-103.67" font-family="Helvetica,sans-Serif" font-size="14.00">▶ Modify</text>
<text text-anchor="middle" x="1000.5" y="-88.67" font-family="Helvetica,sans-Serif" font-size="14.00">specs.txt</text>
</g>
<!-- 020c82da&#45;1360&#45;48ba&#45;883b&#45;341ff0d50bd2&#45;&gt;f8f246cb&#45;f729&#45;44ef&#45;a93c&#45;7c937a5ac1b6 -->
<g id="edge4" class="edge">
<title>020c82da&#45;1360&#45;48ba&#45;883b&#45;341ff0d50bd2&#45;&gt;f8f246cb&#45;f729&#45;44ef&#45;a93c&#45;7c937a5ac1b6</title>
<path fill="none" stroke="black" d="M846.58,-99.87C875.53,-99.87 904.49,-99.87 933.44,-99.87"/>
<polygon fill="black" stroke="black" points="933.68,-103.37 943.68,-99.87 933.68,-96.37 933.68,-103.37"/>
</g>
<!-- 62b73250&#45;36ab&#45;4066&#45;80ea&#45;b2b6a2437409 -->
<g id="node7" class="node">
<title>62b73250&#45;36ab&#45;4066&#45;80ea&#45;b2b6a2437409</title>
<polygon fill="yellow" stroke="black" points="908,-36 539,-36 539,0 908,0 908,-36"/>
<text text-anchor="middle" x="723.5" y="-14.3" font-family="Helvetica,sans-Serif" font-size="14.00">⋯ Run GitHub Actions for `gh0st&#45;writer/TODO.md`</text>
</g>
<!-- 020c82da&#45;1360&#45;48ba&#45;883b&#45;341ff0d50bd2&#45;&gt;62b73250&#45;36ab&#45;4066&#45;80ea&#45;b2b6a2437409 -->
<g id="edge3" class="edge">
<title>020c82da&#45;1360&#45;48ba&#45;883b&#45;341ff0d50bd2&#45;&gt;62b73250&#45;36ab&#45;4066&#45;80ea&#45;b2b6a2437409</title>
<path fill="none" stroke="black" stroke-dasharray="5,2" d="M723.5,-72.72C723.5,-64.27 723.5,-54.89 723.5,-46.36"/>
<polygon fill="black" stroke="black" points="727,-46.15 723.5,-36.15 720,-46.15 727,-46.15"/>
</g>
<!-- f8f246cb&#45;f729&#45;44ef&#45;a93c&#45;7c937a5ac1b6&#45;&gt;end -->
<g id="edge7" class="edge">
<title>f8f246cb&#45;f729&#45;44ef&#45;a93c&#45;7c937a5ac1b6&#45;&gt;end</title>
<path fill="none" stroke="black" d="M1057.33,-99.87C1075.38,-99.87 1093.52,-99.87 1104.63,-99.87"/>
<polygon fill="black" stroke="black" points="1104.75,-103.37 1114.75,-99.87 1104.75,-96.37 1104.75,-103.37"/>
<text text-anchor="middle" x="1086.03" y="-106.67" font-family="Helvetica,sans-Serif" font-size="14.00">Finish</text>
</g>
<!-- fab51d08&#45;e7c3&#45;4d7d&#45;8d5f&#45;35f341ab1d89 -->
<g id="node8" class="node">
<title>fab51d08&#45;e7c3&#45;4d7d&#45;8d5f&#45;35f341ab1d89</title>
<polygon fill="white" stroke="black" points="1197,-36 926,-36 926,0 1197,0 1197,-36"/>
<text text-anchor="middle" x="1061.5" y="-14.3" font-family="Helvetica,sans-Serif" font-size="14.00">▶ Run GitHub Actions for `specs.txt`</text>
</g>
<!-- f8f246cb&#45;f729&#45;44ef&#45;a93c&#45;7c937a5ac1b6&#45;&gt;fab51d08&#45;e7c3&#45;4d7d&#45;8d5f&#45;35f341ab1d89 -->
<g id="edge5" class="edge">
<title>f8f246cb&#45;f729&#45;44ef&#45;a93c&#45;7c937a5ac1b6&#45;&gt;fab51d08&#45;e7c3&#45;4d7d&#45;8d5f&#45;35f341ab1d89</title>
<path fill="none" stroke="black" stroke-dasharray="5,2" d="M1019.13,-74.47C1026.45,-64.89 1034.85,-53.9 1042.22,-44.24"/>
<polygon fill="black" stroke="black" points="1045.1,-46.23 1048.39,-36.16 1039.54,-41.98 1045.1,-46.23"/>
</g>
</g>
</svg>
