<?xml version="1.0" encoding="UTF-8" standalone="no"?>
<!DOCTYPE svg PUBLIC "-//W3C//DTD SVG 1.1//EN"
 "http://www.w3.org/Graphics/SVG/1.1/DTD/svg11.dtd">
<!-- Generated by graphviz version 2.43.0 (0)
 -->
<!-- Title: %3 Pages: 1 -->
<svg width="3041pt" height="238pt"
 viewBox="0.00 0.00 3040.50 237.74" xmlns="http://www.w3.org/2000/svg" xmlns:xlink="http://www.w3.org/1999/xlink">
<g id="graph0" class="graph" transform="scale(1 1) rotate(0) translate(36 201.74)">
<title>%3</title>
<polygon fill="dimgray" stroke="transparent" points="-36,36 -36,-201.74 3004.5,-201.74 3004.5,36 -36,36"/>
<text text-anchor="middle" x="1484.25" y="-150.54" font-family="Helvetica,sans-Serif" font-size="14.00">Sweep&#39;s Plan &amp; Progress</text>
<!-- start -->
<g id="node1" class="node">
<title>start</title>
</g>
<!-- a8553f64&#45;8f3d&#45;4e0c&#45;a8da&#45;399b4727c42c -->
<g id="node3" class="node">
<title>a8553f64&#45;8f3d&#45;4e0c&#45;a8da&#45;399b4727c42c</title>
<ellipse fill="#0ee832" stroke="black" cx="268" cy="-99.87" rx="205.54" ry="26.74"/>
<text text-anchor="middle" x="268" y="-103.67" font-family="Helvetica,sans-Serif" font-size="14.00">✓ Create</text>
<text text-anchor="middle" x="268" y="-88.67" font-family="Helvetica,sans-Serif" font-size="14.00">gh0st&#45;writer/tests/openai_api_tests.php</text>
</g>
<!-- start&#45;&gt;a8553f64&#45;8f3d&#45;4e0c&#45;a8da&#45;399b4727c42c -->
<g id="edge12" class="edge">
<title>start&#45;&gt;a8553f64&#45;8f3d&#45;4e0c&#45;a8da&#45;399b4727c42c</title>
<path fill="none" stroke="black" d="M10.74,-99.87C14.24,-99.87 29.9,-99.87 51.89,-99.87"/>
<polygon fill="black" stroke="black" points="52.05,-103.37 62.05,-99.87 52.05,-96.37 52.05,-103.37"/>
<text text-anchor="middle" x="36.37" y="-106.67" font-family="Helvetica,sans-Serif" font-size="14.00">Start</text>
</g>
<!-- end -->
<g id="node2" class="node">
<title>end</title>
</g>
<!-- 3c9685c6&#45;0207&#45;4e6c&#45;90bc&#45;1ee7e392989d -->
<g id="node4" class="node">
<title>3c9685c6&#45;0207&#45;4e6c&#45;90bc&#45;1ee7e392989d</title>
<ellipse fill="#0ee832" stroke="black" cx="752" cy="-99.87" rx="215.84" ry="26.74"/>
<text text-anchor="middle" x="752" y="-103.67" font-family="Helvetica,sans-Serif" font-size="14.00">✓ Create</text>
<text text-anchor="middle" x="752" y="-88.67" font-family="Helvetica,sans-Serif" font-size="14.00">gh0st&#45;writer/tests/admin_panel_tests.php</text>
</g>
<!-- a8553f64&#45;8f3d&#45;4e0c&#45;a8da&#45;399b4727c42c&#45;&gt;3c9685c6&#45;0207&#45;4e6c&#45;90bc&#45;1ee7e392989d -->
<g id="edge2" class="edge">
<title>a8553f64&#45;8f3d&#45;4e0c&#45;a8da&#45;399b4727c42c&#45;&gt;3c9685c6&#45;0207&#45;4e6c&#45;90bc&#45;1ee7e392989d</title>
<path fill="none" stroke="black" d="M474.08,-99.87C491.4,-99.87 508.72,-99.87 526.03,-99.87"/>
<polygon fill="black" stroke="black" points="526.23,-103.37 536.23,-99.87 526.23,-96.37 526.23,-103.37"/>
</g>
<!-- fafafbe4&#45;ebe2&#45;4a5c&#45;a79e&#45;f208112e7e26 -->
<g id="node9" class="node">
<title>fafafbe4&#45;ebe2&#45;4a5c&#45;a79e&#45;f208112e7e26</title>
<polygon fill="#0ee832" stroke="black" points="484,-36 0,-36 0,0 484,0 484,-36"/>
<text text-anchor="middle" x="242" y="-14.3" font-family="Helvetica,sans-Serif" font-size="14.00">✓ Run GitHub Actions for `gh0st&#45;writer/tests/openai_api_tests.php`</text>
</g>
<!-- a8553f64&#45;8f3d&#45;4e0c&#45;a8da&#45;399b4727c42c&#45;&gt;fafafbe4&#45;ebe2&#45;4a5c&#45;a79e&#45;f208112e7e26 -->
<g id="edge1" class="edge">
<title>a8553f64&#45;8f3d&#45;4e0c&#45;a8da&#45;399b4727c42c&#45;&gt;fafafbe4&#45;ebe2&#45;4a5c&#45;a79e&#45;f208112e7e26</title>
<path fill="none" stroke="black" stroke-dasharray="5,2" d="M259.49,-72.72C256.68,-64.08 253.55,-54.47 250.72,-45.79"/>
<polygon fill="black" stroke="black" points="254.01,-44.57 247.58,-36.15 247.35,-46.74 254.01,-44.57"/>
</g>
<!-- e0a6058f&#45;73d2&#45;43ea&#45;b742&#45;03a9921de343 -->
<g id="node5" class="node">
<title>e0a6058f&#45;73d2&#45;43ea&#45;b742&#45;03a9921de343</title>
<ellipse fill="white" stroke="black" cx="1296" cy="-99.87" rx="253.7" ry="26.74"/>
<text text-anchor="middle" x="1296" y="-103.67" font-family="Helvetica,sans-Serif" font-size="14.00">▶ Create</text>
<text text-anchor="middle" x="1296" y="-88.67" font-family="Helvetica,sans-Serif" font-size="14.00">gh0st&#45;writer/tests/ai_content_detection_tests.php</text>
</g>
<!-- 3c9685c6&#45;0207&#45;4e6c&#45;90bc&#45;1ee7e392989d&#45;&gt;e0a6058f&#45;73d2&#45;43ea&#45;b742&#45;03a9921de343 -->
<g id="edge4" class="edge">
<title>3c9685c6&#45;0207&#45;4e6c&#45;90bc&#45;1ee7e392989d&#45;&gt;e0a6058f&#45;73d2&#45;43ea&#45;b742&#45;03a9921de343</title>
<path fill="none" stroke="black" d="M967.69,-99.87C989.09,-99.87 1010.5,-99.87 1031.9,-99.87"/>
<polygon fill="black" stroke="black" points="1032.07,-103.37 1042.07,-99.87 1032.07,-96.37 1032.07,-103.37"/>
</g>
<!-- 77ccb870&#45;60b6&#45;4f96&#45;a4f1&#45;fe954e5c380a -->
<g id="node10" class="node">
<title>77ccb870&#45;60b6&#45;4f96&#45;a4f1&#45;fe954e5c380a</title>
<polygon fill="yellow" stroke="black" points="1002,-36 502,-36 502,0 1002,0 1002,-36"/>
<text text-anchor="middle" x="752" y="-14.3" font-family="Helvetica,sans-Serif" font-size="14.00">⋯ Run GitHub Actions for `gh0st&#45;writer/tests/admin_panel_tests.php`</text>
</g>
<!-- 3c9685c6&#45;0207&#45;4e6c&#45;90bc&#45;1ee7e392989d&#45;&gt;77ccb870&#45;60b6&#45;4f96&#45;a4f1&#45;fe954e5c380a -->
<g id="edge3" class="edge">
<title>3c9685c6&#45;0207&#45;4e6c&#45;90bc&#45;1ee7e392989d&#45;&gt;77ccb870&#45;60b6&#45;4f96&#45;a4f1&#45;fe954e5c380a</title>
<path fill="none" stroke="black" stroke-dasharray="5,2" d="M752,-72.72C752,-64.27 752,-54.89 752,-46.36"/>
<polygon fill="black" stroke="black" points="755.5,-46.15 752,-36.15 748.5,-46.15 755.5,-46.15"/>
</g>
<!-- aca0abe0&#45;8a70&#45;4424&#45;81fa&#45;974e0a32b988 -->
<g id="node6" class="node">
<title>aca0abe0&#45;8a70&#45;4424&#45;81fa&#45;974e0a32b988</title>
<ellipse fill="white" stroke="black" cx="1821" cy="-99.87" rx="192.17" ry="26.74"/>
<text text-anchor="middle" x="1821" y="-103.67" font-family="Helvetica,sans-Serif" font-size="14.00">▶ Modify</text>
<text text-anchor="middle" x="1821" y="-88.67" font-family="Helvetica,sans-Serif" font-size="14.00">gh0st&#45;writer/gpt_blog_generator.php</text>
</g>
<!-- e0a6058f&#45;73d2&#45;43ea&#45;b742&#45;03a9921de343&#45;&gt;aca0abe0&#45;8a70&#45;4424&#45;81fa&#45;974e0a32b988 -->
<g id="edge6" class="edge">
<title>e0a6058f&#45;73d2&#45;43ea&#45;b742&#45;03a9921de343&#45;&gt;aca0abe0&#45;8a70&#45;4424&#45;81fa&#45;974e0a32b988</title>
<path fill="none" stroke="black" d="M1550.04,-99.87C1572.86,-99.87 1595.68,-99.87 1618.5,-99.87"/>
<polygon fill="black" stroke="black" points="1618.63,-103.37 1628.63,-99.87 1618.63,-96.37 1618.63,-103.37"/>
</g>
<!-- 43b70343&#45;b3a9&#45;4039&#45;8a20&#45;aab593151d8e -->
<g id="node11" class="node">
<title>43b70343&#45;b3a9&#45;4039&#45;8a20&#45;aab593151d8e</title>
<polygon fill="white" stroke="black" points="1571.5,-36 1020.5,-36 1020.5,0 1571.5,0 1571.5,-36"/>
<text text-anchor="middle" x="1296" y="-14.3" font-family="Helvetica,sans-Serif" font-size="14.00">▶ Run GitHub Actions for `gh0st&#45;writer/tests/ai_content_detection_tests.php`</text>
</g>
<!-- e0a6058f&#45;73d2&#45;43ea&#45;b742&#45;03a9921de343&#45;&gt;43b70343&#45;b3a9&#45;4039&#45;8a20&#45;aab593151d8e -->
<g id="edge5" class="edge">
<title>e0a6058f&#45;73d2&#45;43ea&#45;b742&#45;03a9921de343&#45;&gt;43b70343&#45;b3a9&#45;4039&#45;8a20&#45;aab593151d8e</title>
<path fill="none" stroke="black" stroke-dasharray="5,2" d="M1296,-72.72C1296,-64.27 1296,-54.89 1296,-46.36"/>
<polygon fill="black" stroke="black" points="1299.5,-46.15 1296,-36.15 1292.5,-46.15 1299.5,-46.15"/>
</g>
<!-- 32a1ac1e&#45;4a16&#45;4956&#45;8103&#45;6ef84b96a874 -->
<g id="node7" class="node">
<title>32a1ac1e&#45;4a16&#45;4956&#45;8103&#45;6ef84b96a874</title>
<ellipse fill="white" stroke="black" cx="2279" cy="-99.87" rx="159.2" ry="26.74"/>
<text text-anchor="middle" x="2279" y="-103.67" font-family="Helvetica,sans-Serif" font-size="14.00">▶ Modify</text>
<text text-anchor="middle" x="2279" y="-88.67" font-family="Helvetica,sans-Serif" font-size="14.00">gh0st&#45;writer/admin&#45;panel.php</text>
</g>
<!-- aca0abe0&#45;8a70&#45;4424&#45;81fa&#45;974e0a32b988&#45;&gt;32a1ac1e&#45;4a16&#45;4956&#45;8103&#45;6ef84b96a874 -->
<g id="edge8" class="edge">
<title>aca0abe0&#45;8a70&#45;4424&#45;81fa&#45;974e0a32b988&#45;&gt;32a1ac1e&#45;4a16&#45;4956&#45;8103&#45;6ef84b96a874</title>
<path fill="none" stroke="black" d="M2013.77,-99.87C2045.64,-99.87 2077.5,-99.87 2109.36,-99.87"/>
<polygon fill="black" stroke="black" points="2109.71,-103.37 2119.71,-99.87 2109.71,-96.37 2109.71,-103.37"/>
</g>
<!-- 099e5eee&#45;db16&#45;4268&#45;8c66&#45;3fb8c1b76837 -->
<g id="node12" class="node">
<title>099e5eee&#45;db16&#45;4268&#45;8c66&#45;3fb8c1b76837</title>
<polygon fill="white" stroke="black" points="2052.5,-36 1589.5,-36 1589.5,0 2052.5,0 2052.5,-36"/>
<text text-anchor="middle" x="1821" y="-14.3" font-family="Helvetica,sans-Serif" font-size="14.00">▶ Run GitHub Actions for `gh0st&#45;writer/gpt_blog_generator.php`</text>
</g>
<!-- aca0abe0&#45;8a70&#45;4424&#45;81fa&#45;974e0a32b988&#45;&gt;099e5eee&#45;db16&#45;4268&#45;8c66&#45;3fb8c1b76837 -->
<g id="edge7" class="edge">
<title>aca0abe0&#45;8a70&#45;4424&#45;81fa&#45;974e0a32b988&#45;&gt;099e5eee&#45;db16&#45;4268&#45;8c66&#45;3fb8c1b76837</title>
<path fill="none" stroke="black" stroke-dasharray="5,2" d="M1821,-72.72C1821,-64.27 1821,-54.89 1821,-46.36"/>
<polygon fill="black" stroke="black" points="1824.5,-46.15 1821,-36.15 1817.5,-46.15 1824.5,-46.15"/>
</g>
<!-- df22de0e&#45;1955&#45;4779&#45;99af&#45;e61e68e62f25 -->
<g id="node8" class="node">
<title>df22de0e&#45;1955&#45;4779&#45;99af&#45;e61e68e62f25</title>
<ellipse fill="white" stroke="black" cx="2702" cy="-99.87" rx="192.17" ry="26.74"/>
<text text-anchor="middle" x="2702" y="-103.67" font-family="Helvetica,sans-Serif" font-size="14.00">▶ Modify</text>
<text text-anchor="middle" x="2702" y="-88.67" font-family="Helvetica,sans-Serif" font-size="14.00">gh0st&#45;writer/gpt_blog_generator.php</text>
</g>
<!-- 32a1ac1e&#45;4a16&#45;4956&#45;8103&#45;6ef84b96a874&#45;&gt;df22de0e&#45;1955&#45;4779&#45;99af&#45;e61e68e62f25 -->
<g id="edge10" class="edge">
<title>32a1ac1e&#45;4a16&#45;4956&#45;8103&#45;6ef84b96a874&#45;&gt;df22de0e&#45;1955&#45;4779&#45;99af&#45;e61e68e62f25</title>
<path fill="none" stroke="black" d="M2438.45,-99.87C2458.71,-99.87 2478.96,-99.87 2499.22,-99.87"/>
<polygon fill="black" stroke="black" points="2499.49,-103.37 2509.49,-99.87 2499.49,-96.37 2499.49,-103.37"/>
</g>
<!-- b2546835&#45;a4b0&#45;4914&#45;bba2&#45;fd80d6f5e19d -->
<g id="node13" class="node">
<title>b2546835&#45;a4b0&#45;4914&#45;bba2&#45;fd80d6f5e19d</title>
<polygon fill="white" stroke="black" points="2487,-36 2071,-36 2071,0 2487,0 2487,-36"/>
<text text-anchor="middle" x="2279" y="-14.3" font-family="Helvetica,sans-Serif" font-size="14.00">▶ Run GitHub Actions for `gh0st&#45;writer/admin&#45;panel.php`</text>
</g>
<!-- 32a1ac1e&#45;4a16&#45;4956&#45;8103&#45;6ef84b96a874&#45;&gt;b2546835&#45;a4b0&#45;4914&#45;bba2&#45;fd80d6f5e19d -->
<g id="edge9" class="edge">
<title>32a1ac1e&#45;4a16&#45;4956&#45;8103&#45;6ef84b96a874&#45;&gt;b2546835&#45;a4b0&#45;4914&#45;bba2&#45;fd80d6f5e19d</title>
<path fill="none" stroke="black" stroke-dasharray="5,2" d="M2279,-72.72C2279,-64.27 2279,-54.89 2279,-46.36"/>
<polygon fill="black" stroke="black" points="2282.5,-46.15 2279,-36.15 2275.5,-46.15 2282.5,-46.15"/>
</g>
<!-- df22de0e&#45;1955&#45;4779&#45;99af&#45;e61e68e62f25&#45;&gt;end -->
<g id="edge13" class="edge">
<title>df22de0e&#45;1955&#45;4779&#45;99af&#45;e61e68e62f25&#45;&gt;end</title>
<path fill="none" stroke="black" d="M2894.64,-99.87C2914.42,-99.87 2930.96,-99.87 2941.12,-99.87"/>
<polygon fill="black" stroke="black" points="2941.38,-103.37 2951.38,-99.87 2941.38,-96.37 2941.38,-103.37"/>
<text text-anchor="middle" x="2922.92" y="-106.67" font-family="Helvetica,sans-Serif" font-size="14.00">Finish</text>
</g>
<!-- e888e6c6&#45;d30e&#45;4992&#45;b4d3&#45;d4eb23037171 -->
<g id="node14" class="node">
<title>e888e6c6&#45;d30e&#45;4992&#45;b4d3&#45;d4eb23037171</title>
<polygon fill="white" stroke="black" points="2968.5,-36 2505.5,-36 2505.5,0 2968.5,0 2968.5,-36"/>
<text text-anchor="middle" x="2737" y="-14.3" font-family="Helvetica,sans-Serif" font-size="14.00">▶ Run GitHub Actions for `gh0st&#45;writer/gpt_blog_generator.php`</text>
</g>
<!-- df22de0e&#45;1955&#45;4779&#45;99af&#45;e61e68e62f25&#45;&gt;e888e6c6&#45;d30e&#45;4992&#45;b4d3&#45;d4eb23037171 -->
<g id="edge11" class="edge">
<title>df22de0e&#45;1955&#45;4779&#45;99af&#45;e61e68e62f25&#45;&gt;e888e6c6&#45;d30e&#45;4992&#45;b4d3&#45;d4eb23037171</title>
<path fill="none" stroke="black" stroke-dasharray="5,2" d="M2713.46,-72.72C2717.28,-63.99 2721.55,-54.26 2725.38,-45.51"/>
<polygon fill="black" stroke="black" points="2728.68,-46.71 2729.49,-36.15 2722.27,-43.9 2728.68,-46.71"/>
</g>
</g>
</svg>
