<?xml version="1.0" encoding="UTF-8" standalone="no"?>
<!DOCTYPE svg PUBLIC "-//W3C//DTD SVG 1.1//EN"
 "http://www.w3.org/Graphics/SVG/1.1/DTD/svg11.dtd">
<!-- Generated by graphviz version 2.43.0 (0)
 -->
<!-- Title: %3 Pages: 1 -->
<svg width="1309pt" height="165pt"
 viewBox="0.00 0.00 1309.00 164.74" xmlns="http://www.w3.org/2000/svg" xmlns:xlink="http://www.w3.org/1999/xlink">
<g id="graph0" class="graph" transform="scale(1 1) rotate(0) translate(36 128.74)">
<title>%3</title>
<polygon fill="dimgray" stroke="transparent" points="-36,36 -36,-128.74 1273,-128.74 1273,36 -36,36"/>
<text text-anchor="middle" x="618.5" y="-77.54" font-family="Helvetica,sans-Serif" font-size="14.00">Sweep&#39;s Plan &amp; Progress</text>
<!-- start -->
<g id="node1" class="node">
<title>start</title>
</g>
<!-- 4ac8a52b&#45;0bb3&#45;4115&#45;a2bd&#45;43049f2723fe -->
<g id="node3" class="node">
<title>4ac8a52b&#45;0bb3&#45;4115&#45;a2bd&#45;43049f2723fe</title>
<ellipse fill="#0ee832" stroke="black" cx="184.5" cy="-26.87" rx="132.46" ry="26.74"/>
<text text-anchor="middle" x="184.5" y="-30.67" font-family="Helvetica,sans-Serif" font-size="14.00">✓ Create</text>
<text text-anchor="middle" x="184.5" y="-15.67" font-family="Helvetica,sans-Serif" font-size="14.00">sweepnotes/progress.txt</text>
</g>
<!-- start&#45;&gt;4ac8a52b&#45;0bb3&#45;4115&#45;a2bd&#45;43049f2723fe -->
<g id="edge4" class="edge">
<title>start&#45;&gt;4ac8a52b&#45;0bb3&#45;4115&#45;a2bd&#45;43049f2723fe</title>
<path fill="none" stroke="black" d="M1.03,-26.87C4.1,-26.87 20.28,-26.87 41.85,-26.87"/>
<polygon fill="black" stroke="black" points="42.12,-30.37 52.12,-26.87 42.12,-23.37 42.12,-30.37"/>
<text text-anchor="middle" x="26.64" y="-33.67" font-family="Helvetica,sans-Serif" font-size="14.00">Start</text>
</g>
<!-- end -->
<g id="node2" class="node">
<title>end</title>
</g>
<!-- 72fda8b6&#45;df1f&#45;45ec&#45;954a&#45;e50a3fd98ed6 -->
<g id="node4" class="node">
<title>72fda8b6&#45;df1f&#45;45ec&#45;954a&#45;e50a3fd98ed6</title>
<ellipse fill="#0ee832" stroke="black" cx="463.5" cy="-26.87" rx="111.95" ry="26.74"/>
<text text-anchor="middle" x="463.5" y="-30.67" font-family="Helvetica,sans-Serif" font-size="14.00">✓ Create</text>
<text text-anchor="middle" x="463.5" y="-15.67" font-family="Helvetica,sans-Serif" font-size="14.00">sweepnotes/todo.txt</text>
</g>
<!-- 4ac8a52b&#45;0bb3&#45;4115&#45;a2bd&#45;43049f2723fe&#45;&gt;72fda8b6&#45;df1f&#45;45ec&#45;954a&#45;e50a3fd98ed6 -->
<g id="edge1" class="edge">
<title>4ac8a52b&#45;0bb3&#45;4115&#45;a2bd&#45;43049f2723fe&#45;&gt;72fda8b6&#45;df1f&#45;45ec&#45;954a&#45;e50a3fd98ed6</title>
<path fill="none" stroke="black" d="M316.92,-26.87C325.13,-26.87 333.33,-26.87 341.54,-26.87"/>
<polygon fill="black" stroke="black" points="341.56,-30.37 351.56,-26.87 341.56,-23.37 341.56,-30.37"/>
</g>
<!-- 0d5fd77c&#45;2557&#45;4198&#45;85bb&#45;8191269d02bb -->
<g id="node5" class="node">
<title>0d5fd77c&#45;2557&#45;4198&#45;85bb&#45;8191269d02bb</title>
<ellipse fill="yellow" stroke="black" cx="803.5" cy="-26.87" rx="192.17" ry="26.74"/>
<text text-anchor="middle" x="803.5" y="-30.67" font-family="Helvetica,sans-Serif" font-size="14.00">⋯ Modify</text>
<text text-anchor="middle" x="803.5" y="-15.67" font-family="Helvetica,sans-Serif" font-size="14.00">gh0st&#45;writer/gpt_blog_generator.php</text>
</g>
<!-- 72fda8b6&#45;df1f&#45;45ec&#45;954a&#45;e50a3fd98ed6&#45;&gt;0d5fd77c&#45;2557&#45;4198&#45;85bb&#45;8191269d02bb -->
<g id="edge2" class="edge">
<title>72fda8b6&#45;df1f&#45;45ec&#45;954a&#45;e50a3fd98ed6&#45;&gt;0d5fd77c&#45;2557&#45;4198&#45;85bb&#45;8191269d02bb</title>
<path fill="none" stroke="black" d="M575.39,-26.87C583.93,-26.87 592.47,-26.87 601.01,-26.87"/>
<polygon fill="black" stroke="black" points="601.04,-30.37 611.04,-26.87 601.04,-23.37 601.04,-30.37"/>
</g>
<!-- 89d57ab3&#45;cdf9&#45;4071&#45;97dd&#45;6281a8aa5922 -->
<g id="node6" class="node">
<title>89d57ab3&#45;cdf9&#45;4071&#45;97dd&#45;6281a8aa5922</title>
<ellipse fill="white" stroke="black" cx="1104.5" cy="-26.87" rx="73.58" ry="26.74"/>
<text text-anchor="middle" x="1104.5" y="-30.67" font-family="Helvetica,sans-Serif" font-size="14.00">▶ Modify</text>
<text text-anchor="middle" x="1104.5" y="-15.67" font-family="Helvetica,sans-Serif" font-size="14.00">README.md</text>
</g>
<!-- 0d5fd77c&#45;2557&#45;4198&#45;85bb&#45;8191269d02bb&#45;&gt;89d57ab3&#45;cdf9&#45;4071&#45;97dd&#45;6281a8aa5922 -->
<g id="edge3" class="edge">
<title>0d5fd77c&#45;2557&#45;4198&#45;85bb&#45;8191269d02bb&#45;&gt;89d57ab3&#45;cdf9&#45;4071&#45;97dd&#45;6281a8aa5922</title>
<path fill="none" stroke="black" d="M996.03,-26.87C1004.27,-26.87 1012.5,-26.87 1020.73,-26.87"/>
<polygon fill="black" stroke="black" points="1020.78,-30.37 1030.78,-26.87 1020.78,-23.37 1020.78,-30.37"/>
</g>
<!-- 89d57ab3&#45;cdf9&#45;4071&#45;97dd&#45;6281a8aa5922&#45;&gt;end -->
<g id="edge5" class="edge">
<title>89d57ab3&#45;cdf9&#45;4071&#45;97dd&#45;6281a8aa5922&#45;&gt;end</title>
<path fill="none" stroke="black" d="M1178.22,-26.87C1196.84,-26.87 1214.64,-26.87 1225.56,-26.87"/>
<polygon fill="black" stroke="black" points="1225.78,-30.37 1235.78,-26.87 1225.78,-23.37 1225.78,-30.37"/>
<text text-anchor="middle" x="1207.02" y="-33.67" font-family="Helvetica,sans-Serif" font-size="14.00">Finish</text>
</g>
</g>
</svg>
