<?xml version="1.0" encoding="UTF-8" standalone="no"?>
<!DOCTYPE svg PUBLIC "-//W3C//DTD SVG 1.1//EN"
 "http://www.w3.org/Graphics/SVG/1.1/DTD/svg11.dtd">
<!-- Generated by graphviz version 2.43.0 (0)
 -->
<!-- Title: %3 Pages: 1 -->
<svg width="3036pt" height="238pt"
 viewBox="0.00 0.00 3035.50 237.74" xmlns="http://www.w3.org/2000/svg" xmlns:xlink="http://www.w3.org/1999/xlink">
<g id="graph0" class="graph" transform="scale(1 1) rotate(0) translate(36 201.74)">
<title>%3</title>
<polygon fill="dimgray" stroke="transparent" points="-36,36 -36,-201.74 2999.5,-201.74 2999.5,36 -36,36"/>
<text text-anchor="middle" x="1481.75" y="-150.54" font-family="Helvetica,sans-Serif" font-size="14.00">Sweep&#39;s Plan &amp; Progress</text>
<!-- start -->
<g id="node1" class="node">
<title>start</title>
</g>
<!-- a8553f64&#45;8f3d&#45;4e0c&#45;a8da&#45;399b4727c42c -->
<g id="node3" class="node">
<title>a8553f64&#45;8f3d&#45;4e0c&#45;a8da&#45;399b4727c42c</title>
<ellipse fill="yellow" stroke="black" cx="266" cy="-99.87" rx="205.54" ry="26.74"/>
<text text-anchor="middle" x="266" y="-103.67" font-family="Helvetica,sans-Serif" font-size="14.00">⋯ Create</text>
<text text-anchor="middle" x="266" y="-88.67" font-family="Helvetica,sans-Serif" font-size="14.00">gh0st&#45;writer/tests/openai_api_tests.php</text>
</g>
<!-- start&#45;&gt;a8553f64&#45;8f3d&#45;4e0c&#45;a8da&#45;399b4727c42c -->
<g id="edge12" class="edge">
<title>start&#45;&gt;a8553f64&#45;8f3d&#45;4e0c&#45;a8da&#45;399b4727c42c</title>
<path fill="none" stroke="black" d="M8.74,-99.87C12.24,-99.87 27.9,-99.87 49.89,-99.87"/>
<polygon fill="black" stroke="black" points="50.05,-103.37 60.05,-99.87 50.05,-96.37 50.05,-103.37"/>
<text text-anchor="middle" x="34.37" y="-106.67" font-family="Helvetica,sans-Serif" font-size="14.00">Start</text>
</g>
<!-- end -->
<g id="node2" class="node">
<title>end</title>
</g>
<!-- 3c9685c6&#45;0207&#45;4e6c&#45;90bc&#45;1ee7e392989d -->
<g id="node4" class="node">
<title>3c9685c6&#45;0207&#45;4e6c&#45;90bc&#45;1ee7e392989d</title>
<ellipse fill="white" stroke="black" cx="749" cy="-99.87" rx="215.84" ry="26.74"/>
<text text-anchor="middle" x="749" y="-103.67" font-family="Helvetica,sans-Serif" font-size="14.00">▶ Create</text>
<text text-anchor="middle" x="749" y="-88.67" font-family="Helvetica,sans-Serif" font-size="14.00">gh0st&#45;writer/tests/admin_panel_tests.php</text>
</g>
<!-- a8553f64&#45;8f3d&#45;4e0c&#45;a8da&#45;399b4727c42c&#45;&gt;3c9685c6&#45;0207&#45;4e6c&#45;90bc&#45;1ee7e392989d -->
<g id="edge2" class="edge">
<title>a8553f64&#45;8f3d&#45;4e0c&#45;a8da&#45;399b4727c42c&#45;&gt;3c9685c6&#45;0207&#45;4e6c&#45;90bc&#45;1ee7e392989d</title>
<path fill="none" stroke="black" d="M472.12,-99.87C489.15,-99.87 506.18,-99.87 523.21,-99.87"/>
<polygon fill="black" stroke="black" points="523.23,-103.37 533.23,-99.87 523.23,-96.37 523.23,-103.37"/>
</g>
<!-- fafafbe4&#45;ebe2&#45;4a5c&#45;a79e&#45;f208112e7e26 -->
<g id="node9" class="node">
<title>fafafbe4&#45;ebe2&#45;4a5c&#45;a79e&#45;f208112e7e26</title>
<polygon fill="white" stroke="black" points="482,-36 0,-36 0,0 482,0 482,-36"/>
<text text-anchor="middle" x="241" y="-14.3" font-family="Helvetica,sans-Serif" font-size="14.00">▶ Run GitHub Actions for `gh0st&#45;writer/tests/openai_api_tests.php`</text>
</g>
<!-- a8553f64&#45;8f3d&#45;4e0c&#45;a8da&#45;399b4727c42c&#45;&gt;fafafbe4&#45;ebe2&#45;4a5c&#45;a79e&#45;f208112e7e26 -->
<g id="edge1" class="edge">
<title>a8553f64&#45;8f3d&#45;4e0c&#45;a8da&#45;399b4727c42c&#45;&gt;fafafbe4&#45;ebe2&#45;4a5c&#45;a79e&#45;f208112e7e26</title>
<path fill="none" stroke="black" stroke-dasharray="5,2" d="M257.81,-72.72C255.11,-64.08 252.1,-54.47 249.39,-45.79"/>
<polygon fill="black" stroke="black" points="252.69,-44.64 246.37,-36.15 246.01,-46.74 252.69,-44.64"/>
</g>
<!-- e0a6058f&#45;73d2&#45;43ea&#45;b742&#45;03a9921de343 -->
<g id="node5" class="node">
<title>e0a6058f&#45;73d2&#45;43ea&#45;b742&#45;03a9921de343</title>
<ellipse fill="white" stroke="black" cx="1291" cy="-99.87" rx="253.7" ry="26.74"/>
<text text-anchor="middle" x="1291" y="-103.67" font-family="Helvetica,sans-Serif" font-size="14.00">▶ Create</text>
<text text-anchor="middle" x="1291" y="-88.67" font-family="Helvetica,sans-Serif" font-size="14.00">gh0st&#45;writer/tests/ai_content_detection_tests.php</text>
</g>
<!-- 3c9685c6&#45;0207&#45;4e6c&#45;90bc&#45;1ee7e392989d&#45;&gt;e0a6058f&#45;73d2&#45;43ea&#45;b742&#45;03a9921de343 -->
<g id="edge4" class="edge">
<title>3c9685c6&#45;0207&#45;4e6c&#45;90bc&#45;1ee7e392989d&#45;&gt;e0a6058f&#45;73d2&#45;43ea&#45;b742&#45;03a9921de343</title>
<path fill="none" stroke="black" d="M964.69,-99.87C985.41,-99.87 1006.13,-99.87 1026.85,-99.87"/>
<polygon fill="black" stroke="black" points="1027.03,-103.37 1037.03,-99.87 1027.03,-96.37 1027.03,-103.37"/>
</g>
<!-- 77ccb870&#45;60b6&#45;4f96&#45;a4f1&#45;fe954e5c380a -->
<g id="node10" class="node">
<title>77ccb870&#45;60b6&#45;4f96&#45;a4f1&#45;fe954e5c380a</title>
<polygon fill="white" stroke="black" points="997.5,-36 500.5,-36 500.5,0 997.5,0 997.5,-36"/>
<text text-anchor="middle" x="749" y="-14.3" font-family="Helvetica,sans-Serif" font-size="14.00">▶ Run GitHub Actions for `gh0st&#45;writer/tests/admin_panel_tests.php`</text>
</g>
<!-- 3c9685c6&#45;0207&#45;4e6c&#45;90bc&#45;1ee7e392989d&#45;&gt;77ccb870&#45;60b6&#45;4f96&#45;a4f1&#45;fe954e5c380a -->
<g id="edge3" class="edge">
<title>3c9685c6&#45;0207&#45;4e6c&#45;90bc&#45;1ee7e392989d&#45;&gt;77ccb870&#45;60b6&#45;4f96&#45;a4f1&#45;fe954e5c380a</title>
<path fill="none" stroke="black" stroke-dasharray="5,2" d="M749,-72.72C749,-64.27 749,-54.89 749,-46.36"/>
<polygon fill="black" stroke="black" points="752.5,-46.15 749,-36.15 745.5,-46.15 752.5,-46.15"/>
</g>
<!-- aca0abe0&#45;8a70&#45;4424&#45;81fa&#45;974e0a32b988 -->
<g id="node6" class="node">
<title>aca0abe0&#45;8a70&#45;4424&#45;81fa&#45;974e0a32b988</title>
<ellipse fill="white" stroke="black" cx="1816" cy="-99.87" rx="192.17" ry="26.74"/>
<text text-anchor="middle" x="1816" y="-103.67" font-family="Helvetica,sans-Serif" font-size="14.00">▶ Modify</text>
<text text-anchor="middle" x="1816" y="-88.67" font-family="Helvetica,sans-Serif" font-size="14.00">gh0st&#45;writer/gpt_blog_generator.php</text>
</g>
<!-- e0a6058f&#45;73d2&#45;43ea&#45;b742&#45;03a9921de343&#45;&gt;aca0abe0&#45;8a70&#45;4424&#45;81fa&#45;974e0a32b988 -->
<g id="edge6" class="edge">
<title>e0a6058f&#45;73d2&#45;43ea&#45;b742&#45;03a9921de343&#45;&gt;aca0abe0&#45;8a70&#45;4424&#45;81fa&#45;974e0a32b988</title>
<path fill="none" stroke="black" d="M1545.04,-99.87C1567.86,-99.87 1590.68,-99.87 1613.5,-99.87"/>
<polygon fill="black" stroke="black" points="1613.63,-103.37 1623.63,-99.87 1613.63,-96.37 1613.63,-103.37"/>
</g>
<!-- 43b70343&#45;b3a9&#45;4039&#45;8a20&#45;aab593151d8e -->
<g id="node11" class="node">
<title>43b70343&#45;b3a9&#45;4039&#45;8a20&#45;aab593151d8e</title>
<polygon fill="white" stroke="black" points="1566.5,-36 1015.5,-36 1015.5,0 1566.5,0 1566.5,-36"/>
<text text-anchor="middle" x="1291" y="-14.3" font-family="Helvetica,sans-Serif" font-size="14.00">▶ Run GitHub Actions for `gh0st&#45;writer/tests/ai_content_detection_tests.php`</text>
</g>
<!-- e0a6058f&#45;73d2&#45;43ea&#45;b742&#45;03a9921de343&#45;&gt;43b70343&#45;b3a9&#45;4039&#45;8a20&#45;aab593151d8e -->
<g id="edge5" class="edge">
<title>e0a6058f&#45;73d2&#45;43ea&#45;b742&#45;03a9921de343&#45;&gt;43b70343&#45;b3a9&#45;4039&#45;8a20&#45;aab593151d8e</title>
<path fill="none" stroke="black" stroke-dasharray="5,2" d="M1291,-72.72C1291,-64.27 1291,-54.89 1291,-46.36"/>
<polygon fill="black" stroke="black" points="1294.5,-46.15 1291,-36.15 1287.5,-46.15 1294.5,-46.15"/>
</g>
<!-- 32a1ac1e&#45;4a16&#45;4956&#45;8103&#45;6ef84b96a874 -->
<g id="node7" class="node">
<title>32a1ac1e&#45;4a16&#45;4956&#45;8103&#45;6ef84b96a874</title>
<ellipse fill="white" stroke="black" cx="2274" cy="-99.87" rx="159.2" ry="26.74"/>
<text text-anchor="middle" x="2274" y="-103.67" font-family="Helvetica,sans-Serif" font-size="14.00">▶ Modify</text>
<text text-anchor="middle" x="2274" y="-88.67" font-family="Helvetica,sans-Serif" font-size="14.00">gh0st&#45;writer/admin&#45;panel.php</text>
</g>
<!-- aca0abe0&#45;8a70&#45;4424&#45;81fa&#45;974e0a32b988&#45;&gt;32a1ac1e&#45;4a16&#45;4956&#45;8103&#45;6ef84b96a874 -->
<g id="edge8" class="edge">
<title>aca0abe0&#45;8a70&#45;4424&#45;81fa&#45;974e0a32b988&#45;&gt;32a1ac1e&#45;4a16&#45;4956&#45;8103&#45;6ef84b96a874</title>
<path fill="none" stroke="black" d="M2008.77,-99.87C2040.64,-99.87 2072.5,-99.87 2104.36,-99.87"/>
<polygon fill="black" stroke="black" points="2104.71,-103.37 2114.71,-99.87 2104.71,-96.37 2104.71,-103.37"/>
</g>
<!-- 099e5eee&#45;db16&#45;4268&#45;8c66&#45;3fb8c1b76837 -->
<g id="node12" class="node">
<title>099e5eee&#45;db16&#45;4268&#45;8c66&#45;3fb8c1b76837</title>
<polygon fill="white" stroke="black" points="2047.5,-36 1584.5,-36 1584.5,0 2047.5,0 2047.5,-36"/>
<text text-anchor="middle" x="1816" y="-14.3" font-family="Helvetica,sans-Serif" font-size="14.00">▶ Run GitHub Actions for `gh0st&#45;writer/gpt_blog_generator.php`</text>
</g>
<!-- aca0abe0&#45;8a70&#45;4424&#45;81fa&#45;974e0a32b988&#45;&gt;099e5eee&#45;db16&#45;4268&#45;8c66&#45;3fb8c1b76837 -->
<g id="edge7" class="edge">
<title>aca0abe0&#45;8a70&#45;4424&#45;81fa&#45;974e0a32b988&#45;&gt;099e5eee&#45;db16&#45;4268&#45;8c66&#45;3fb8c1b76837</title>
<path fill="none" stroke="black" stroke-dasharray="5,2" d="M1816,-72.72C1816,-64.27 1816,-54.89 1816,-46.36"/>
<polygon fill="black" stroke="black" points="1819.5,-46.15 1816,-36.15 1812.5,-46.15 1819.5,-46.15"/>
</g>
<!-- df22de0e&#45;1955&#45;4779&#45;99af&#45;e61e68e62f25 -->
<g id="node8" class="node">
<title>df22de0e&#45;1955&#45;4779&#45;99af&#45;e61e68e62f25</title>
<ellipse fill="white" stroke="black" cx="2697" cy="-99.87" rx="192.17" ry="26.74"/>
<text text-anchor="middle" x="2697" y="-103.67" font-family="Helvetica,sans-Serif" font-size="14.00">▶ Modify</text>
<text text-anchor="middle" x="2697" y="-88.67" font-family="Helvetica,sans-Serif" font-size="14.00">gh0st&#45;writer/gpt_blog_generator.php</text>
</g>
<!-- 32a1ac1e&#45;4a16&#45;4956&#45;8103&#45;6ef84b96a874&#45;&gt;df22de0e&#45;1955&#45;4779&#45;99af&#45;e61e68e62f25 -->
<g id="edge10" class="edge">
<title>32a1ac1e&#45;4a16&#45;4956&#45;8103&#45;6ef84b96a874&#45;&gt;df22de0e&#45;1955&#45;4779&#45;99af&#45;e61e68e62f25</title>
<path fill="none" stroke="black" d="M2433.45,-99.87C2453.71,-99.87 2473.96,-99.87 2494.22,-99.87"/>
<polygon fill="black" stroke="black" points="2494.49,-103.37 2504.49,-99.87 2494.49,-96.37 2494.49,-103.37"/>
</g>
<!-- b2546835&#45;a4b0&#45;4914&#45;bba2&#45;fd80d6f5e19d -->
<g id="node13" class="node">
<title>b2546835&#45;a4b0&#45;4914&#45;bba2&#45;fd80d6f5e19d</title>
<polygon fill="white" stroke="black" points="2482,-36 2066,-36 2066,0 2482,0 2482,-36"/>
<text text-anchor="middle" x="2274" y="-14.3" font-family="Helvetica,sans-Serif" font-size="14.00">▶ Run GitHub Actions for `gh0st&#45;writer/admin&#45;panel.php`</text>
</g>
<!-- 32a1ac1e&#45;4a16&#45;4956&#45;8103&#45;6ef84b96a874&#45;&gt;b2546835&#45;a4b0&#45;4914&#45;bba2&#45;fd80d6f5e19d -->
<g id="edge9" class="edge">
<title>32a1ac1e&#45;4a16&#45;4956&#45;8103&#45;6ef84b96a874&#45;&gt;b2546835&#45;a4b0&#45;4914&#45;bba2&#45;fd80d6f5e19d</title>
<path fill="none" stroke="black" stroke-dasharray="5,2" d="M2274,-72.72C2274,-64.27 2274,-54.89 2274,-46.36"/>
<polygon fill="black" stroke="black" points="2277.5,-46.15 2274,-36.15 2270.5,-46.15 2277.5,-46.15"/>
</g>
<!-- df22de0e&#45;1955&#45;4779&#45;99af&#45;e61e68e62f25&#45;&gt;end -->
<g id="edge13" class="edge">
<title>df22de0e&#45;1955&#45;4779&#45;99af&#45;e61e68e62f25&#45;&gt;end</title>
<path fill="none" stroke="black" d="M2889.64,-99.87C2909.42,-99.87 2925.96,-99.87 2936.12,-99.87"/>
<polygon fill="black" stroke="black" points="2936.38,-103.37 2946.38,-99.87 2936.38,-96.37 2936.38,-103.37"/>
<text text-anchor="middle" x="2917.92" y="-106.67" font-family="Helvetica,sans-Serif" font-size="14.00">Finish</text>
</g>
<!-- e888e6c6&#45;d30e&#45;4992&#45;b4d3&#45;d4eb23037171 -->
<g id="node14" class="node">
<title>e888e6c6&#45;d30e&#45;4992&#45;b4d3&#45;d4eb23037171</title>
<polygon fill="white" stroke="black" points="2963.5,-36 2500.5,-36 2500.5,0 2963.5,0 2963.5,-36"/>
<text text-anchor="middle" x="2732" y="-14.3" font-family="Helvetica,sans-Serif" font-size="14.00">▶ Run GitHub Actions for `gh0st&#45;writer/gpt_blog_generator.php`</text>
</g>
<!-- df22de0e&#45;1955&#45;4779&#45;99af&#45;e61e68e62f25&#45;&gt;e888e6c6&#45;d30e&#45;4992&#45;b4d3&#45;d4eb23037171 -->
<g id="edge11" class="edge">
<title>df22de0e&#45;1955&#45;4779&#45;99af&#45;e61e68e62f25&#45;&gt;e888e6c6&#45;d30e&#45;4992&#45;b4d3&#45;d4eb23037171</title>
<path fill="none" stroke="black" stroke-dasharray="5,2" d="M2708.46,-72.72C2712.28,-63.99 2716.55,-54.26 2720.38,-45.51"/>
<polygon fill="black" stroke="black" points="2723.68,-46.71 2724.49,-36.15 2717.27,-43.9 2723.68,-46.71"/>
</g>
</g>
</svg>
