<?xml version="1.0" encoding="UTF-8" standalone="no"?>
<!DOCTYPE svg PUBLIC "-//W3C//DTD SVG 1.1//EN"
 "http://www.w3.org/Graphics/SVG/1.1/DTD/svg11.dtd">
<!-- Generated by graphviz version 2.43.0 (0)
 -->
<!-- Title: %3 Pages: 1 -->
<svg width="2192pt" height="238pt"
 viewBox="0.00 0.00 2191.50 237.74" xmlns="http://www.w3.org/2000/svg" xmlns:xlink="http://www.w3.org/1999/xlink">
<g id="graph0" class="graph" transform="scale(1 1) rotate(0) translate(36 201.74)">
<title>%3</title>
<polygon fill="dimgray" stroke="transparent" points="-36,36 -36,-201.74 2155.5,-201.74 2155.5,36 -36,36"/>
<text text-anchor="middle" x="1059.75" y="-150.54" font-family="Helvetica,sans-Serif" font-size="14.00">Sweep&#39;s Plan &amp; Progress</text>
<!-- start -->
<g id="node1" class="node">
<title>start</title>
</g>
<!-- 4b4af4b2&#45;0a76&#45;435c&#45;a62d&#45;430c339d9fd4 -->
<g id="node3" class="node">
<title>4b4af4b2&#45;0a76&#45;435c&#45;a62d&#45;430c339d9fd4</title>
<ellipse fill="#0ee832" stroke="black" cx="260" cy="-99.87" rx="147.57" ry="26.74"/>
<text text-anchor="middle" x="260" y="-103.67" font-family="Helvetica,sans-Serif" font-size="14.00">✓ Modify</text>
<text text-anchor="middle" x="260" y="-88.67" font-family="Helvetica,sans-Serif" font-size="14.00">blog_generator_prompts.txt</text>
</g>
<!-- start&#45;&gt;4b4af4b2&#45;0a76&#45;435c&#45;a62d&#45;430c339d9fd4 -->
<g id="edge12" class="edge">
<title>start&#45;&gt;4b4af4b2&#45;0a76&#45;435c&#45;a62d&#45;430c339d9fd4</title>
<path fill="none" stroke="black" d="M60.57,-99.87C63.77,-99.87 80,-99.87 101.94,-99.87"/>
<polygon fill="black" stroke="black" points="102.03,-103.37 112.03,-99.87 102.03,-96.37 102.03,-103.37"/>
<text text-anchor="middle" x="86.36" y="-106.67" font-family="Helvetica,sans-Serif" font-size="14.00">Start</text>
</g>
<!-- end -->
<g id="node2" class="node">
<title>end</title>
</g>
<!-- 422cc47d&#45;5bb6&#45;4898&#45;aa27&#45;da2dfd0d76e3 -->
<g id="node4" class="node">
<title>422cc47d&#45;5bb6&#45;4898&#45;aa27&#45;da2dfd0d76e3</title>
<ellipse fill="white" stroke="black" cx="558" cy="-99.87" rx="56.64" ry="26.74"/>
<text text-anchor="middle" x="558" y="-103.67" font-family="Helvetica,sans-Serif" font-size="14.00">▶ Modify</text>
<text text-anchor="middle" x="558" y="-88.67" font-family="Helvetica,sans-Serif" font-size="14.00">specs.txt</text>
</g>
<!-- 4b4af4b2&#45;0a76&#45;435c&#45;a62d&#45;430c339d9fd4&#45;&gt;422cc47d&#45;5bb6&#45;4898&#45;aa27&#45;da2dfd0d76e3 -->
<g id="edge2" class="edge">
<title>4b4af4b2&#45;0a76&#45;435c&#45;a62d&#45;430c339d9fd4&#45;&gt;422cc47d&#45;5bb6&#45;4898&#45;aa27&#45;da2dfd0d76e3</title>
<path fill="none" stroke="black" d="M407.84,-99.87C435.61,-99.87 463.39,-99.87 491.16,-99.87"/>
<polygon fill="black" stroke="black" points="491.4,-103.37 501.4,-99.87 491.4,-96.37 491.4,-103.37"/>
</g>
<!-- f4e6c906&#45;1b2c&#45;4cd4&#45;aeb4&#45;101802814467 -->
<g id="node9" class="node">
<title>f4e6c906&#45;1b2c&#45;4cd4&#45;aeb4&#45;101802814467</title>
<polygon fill="yellow" stroke="black" points="404,-36 0,-36 0,0 404,0 404,-36"/>
<text text-anchor="middle" x="202" y="-14.3" font-family="Helvetica,sans-Serif" font-size="14.00">⋯ Run GitHub Actions for `blog_generator_prompts.txt`</text>
</g>
<!-- 4b4af4b2&#45;0a76&#45;435c&#45;a62d&#45;430c339d9fd4&#45;&gt;f4e6c906&#45;1b2c&#45;4cd4&#45;aeb4&#45;101802814467 -->
<g id="edge1" class="edge">
<title>4b4af4b2&#45;0a76&#45;435c&#45;a62d&#45;430c339d9fd4&#45;&gt;f4e6c906&#45;1b2c&#45;4cd4&#45;aeb4&#45;101802814467</title>
<path fill="none" stroke="black" stroke-dasharray="5,2" d="M241.33,-73.16C234.7,-64.04 227.25,-53.77 220.63,-44.65"/>
<polygon fill="black" stroke="black" points="223.3,-42.37 214.59,-36.34 217.63,-46.48 223.3,-42.37"/>
</g>
<!-- ff5ce07b&#45;090e&#45;4b20&#45;b514&#45;b4c768c0d602 -->
<g id="node5" class="node">
<title>ff5ce07b&#45;090e&#45;4b20&#45;b514&#45;b4c768c0d602</title>
<ellipse fill="white" stroke="black" cx="878" cy="-99.87" rx="100.32" ry="26.74"/>
<text text-anchor="middle" x="878" y="-103.67" font-family="Helvetica,sans-Serif" font-size="14.00">▶ Create</text>
<text text-anchor="middle" x="878" y="-88.67" font-family="Helvetica,sans-Serif" font-size="14.00">blog_generator.py</text>
</g>
<!-- 422cc47d&#45;5bb6&#45;4898&#45;aa27&#45;da2dfd0d76e3&#45;&gt;ff5ce07b&#45;090e&#45;4b20&#45;b514&#45;b4c768c0d602 -->
<g id="edge4" class="edge">
<title>422cc47d&#45;5bb6&#45;4898&#45;aa27&#45;da2dfd0d76e3&#45;&gt;ff5ce07b&#45;090e&#45;4b20&#45;b514&#45;b4c768c0d602</title>
<path fill="none" stroke="black" d="M614.88,-99.87C665.7,-99.87 716.53,-99.87 767.36,-99.87"/>
<polygon fill="black" stroke="black" points="767.53,-103.37 777.53,-99.87 767.53,-96.37 767.53,-103.37"/>
</g>
<!-- 47f91261&#45;3a7b&#45;4973&#45;b81a&#45;edaf21db9c1d -->
<g id="node10" class="node">
<title>47f91261&#45;3a7b&#45;4973&#45;b81a&#45;edaf21db9c1d</title>
<polygon fill="white" stroke="black" points="693.5,-36 422.5,-36 422.5,0 693.5,0 693.5,-36"/>
<text text-anchor="middle" x="558" y="-14.3" font-family="Helvetica,sans-Serif" font-size="14.00">▶ Run GitHub Actions for `specs.txt`</text>
</g>
<!-- 422cc47d&#45;5bb6&#45;4898&#45;aa27&#45;da2dfd0d76e3&#45;&gt;47f91261&#45;3a7b&#45;4973&#45;b81a&#45;edaf21db9c1d -->
<g id="edge3" class="edge">
<title>422cc47d&#45;5bb6&#45;4898&#45;aa27&#45;da2dfd0d76e3&#45;&gt;47f91261&#45;3a7b&#45;4973&#45;b81a&#45;edaf21db9c1d</title>
<path fill="none" stroke="black" stroke-dasharray="5,2" d="M558,-72.72C558,-64.27 558,-54.89 558,-46.36"/>
<polygon fill="black" stroke="black" points="561.5,-46.15 558,-36.15 554.5,-46.15 561.5,-46.15"/>
</g>
<!-- 8770978c&#45;79c4&#45;4b41&#45;a8a0&#45;86bdec102907 -->
<g id="node6" class="node">
<title>8770978c&#45;79c4&#45;4b41&#45;a8a0&#45;86bdec102907</title>
<ellipse fill="white" stroke="black" cx="1236" cy="-99.87" rx="109.7" ry="26.74"/>
<text text-anchor="middle" x="1236" y="-103.67" font-family="Helvetica,sans-Serif" font-size="14.00">▶ Create</text>
<text text-anchor="middle" x="1236" y="-88.67" font-family="Helvetica,sans-Serif" font-size="14.00">content_curation.py</text>
</g>
<!-- ff5ce07b&#45;090e&#45;4b20&#45;b514&#45;b4c768c0d602&#45;&gt;8770978c&#45;79c4&#45;4b41&#45;a8a0&#45;86bdec102907 -->
<g id="edge6" class="edge">
<title>ff5ce07b&#45;090e&#45;4b20&#45;b514&#45;b4c768c0d602&#45;&gt;8770978c&#45;79c4&#45;4b41&#45;a8a0&#45;86bdec102907</title>
<path fill="none" stroke="black" d="M978.69,-99.87C1024.49,-99.87 1070.3,-99.87 1116.11,-99.87"/>
<polygon fill="black" stroke="black" points="1116.19,-103.37 1126.19,-99.87 1116.19,-96.37 1116.19,-103.37"/>
</g>
<!-- 2c9abb09&#45;2828&#45;46b9&#45;80dc&#45;85ff910775f3 -->
<g id="node11" class="node">
<title>2c9abb09&#45;2828&#45;46b9&#45;80dc&#45;85ff910775f3</title>
<polygon fill="white" stroke="black" points="1044.5,-36 711.5,-36 711.5,0 1044.5,0 1044.5,-36"/>
<text text-anchor="middle" x="878" y="-14.3" font-family="Helvetica,sans-Serif" font-size="14.00">▶ Run GitHub Actions for `blog_generator.py`</text>
</g>
<!-- ff5ce07b&#45;090e&#45;4b20&#45;b514&#45;b4c768c0d602&#45;&gt;2c9abb09&#45;2828&#45;46b9&#45;80dc&#45;85ff910775f3 -->
<g id="edge5" class="edge">
<title>ff5ce07b&#45;090e&#45;4b20&#45;b514&#45;b4c768c0d602&#45;&gt;2c9abb09&#45;2828&#45;46b9&#45;80dc&#45;85ff910775f3</title>
<path fill="none" stroke="black" stroke-dasharray="5,2" d="M878,-72.72C878,-64.27 878,-54.89 878,-46.36"/>
<polygon fill="black" stroke="black" points="881.5,-46.15 878,-36.15 874.5,-46.15 881.5,-46.15"/>
</g>
<!-- b50bff69&#45;4916&#45;44e6&#45;8579&#45;da80d36ae11a -->
<g id="node7" class="node">
<title>b50bff69&#45;4916&#45;44e6&#45;8579&#45;da80d36ae11a</title>
<ellipse fill="white" stroke="black" cx="1600" cy="-99.87" rx="108.79" ry="26.74"/>
<text text-anchor="middle" x="1600" y="-103.67" font-family="Helvetica,sans-Serif" font-size="14.00">▶ Create</text>
<text text-anchor="middle" x="1600" y="-88.67" font-family="Helvetica,sans-Serif" font-size="14.00">content_analysis.py</text>
</g>
<!-- 8770978c&#45;79c4&#45;4b41&#45;a8a0&#45;86bdec102907&#45;&gt;b50bff69&#45;4916&#45;44e6&#45;8579&#45;da80d36ae11a -->
<g id="edge8" class="edge">
<title>8770978c&#45;79c4&#45;4b41&#45;a8a0&#45;86bdec102907&#45;&gt;b50bff69&#45;4916&#45;44e6&#45;8579&#45;da80d36ae11a</title>
<path fill="none" stroke="black" d="M1345.84,-99.87C1390.76,-99.87 1435.68,-99.87 1480.6,-99.87"/>
<polygon fill="black" stroke="black" points="1480.79,-103.37 1490.79,-99.87 1480.79,-96.37 1480.79,-103.37"/>
</g>
<!-- a7989308&#45;5499&#45;43c3&#45;a0f7&#45;31820f76e9ef -->
<g id="node12" class="node">
<title>a7989308&#45;5499&#45;43c3&#45;a0f7&#45;31820f76e9ef</title>
<polygon fill="white" stroke="black" points="1409,-36 1063,-36 1063,0 1409,0 1409,-36"/>
<text text-anchor="middle" x="1236" y="-14.3" font-family="Helvetica,sans-Serif" font-size="14.00">▶ Run GitHub Actions for `content_curation.py`</text>
</g>
<!-- 8770978c&#45;79c4&#45;4b41&#45;a8a0&#45;86bdec102907&#45;&gt;a7989308&#45;5499&#45;43c3&#45;a0f7&#45;31820f76e9ef -->
<g id="edge7" class="edge">
<title>8770978c&#45;79c4&#45;4b41&#45;a8a0&#45;86bdec102907&#45;&gt;a7989308&#45;5499&#45;43c3&#45;a0f7&#45;31820f76e9ef</title>
<path fill="none" stroke="black" stroke-dasharray="5,2" d="M1236,-72.72C1236,-64.27 1236,-54.89 1236,-46.36"/>
<polygon fill="black" stroke="black" points="1239.5,-46.15 1236,-36.15 1232.5,-46.15 1239.5,-46.15"/>
</g>
<!-- a32d6a3f&#45;2afe&#45;456b&#45;9124&#45;363b154b9d63 -->
<g id="node8" class="node">
<title>a32d6a3f&#45;2afe&#45;456b&#45;9124&#45;363b154b9d63</title>
<ellipse fill="white" stroke="black" cx="1898" cy="-99.87" rx="96.75" ry="26.74"/>
<text text-anchor="middle" x="1898" y="-103.67" font-family="Helvetica,sans-Serif" font-size="14.00">▶ Create</text>
<text text-anchor="middle" x="1898" y="-88.67" font-family="Helvetica,sans-Serif" font-size="14.00">user_interface.py</text>
</g>
<!-- b50bff69&#45;4916&#45;44e6&#45;8579&#45;da80d36ae11a&#45;&gt;a32d6a3f&#45;2afe&#45;456b&#45;9124&#45;363b154b9d63 -->
<g id="edge10" class="edge">
<title>b50bff69&#45;4916&#45;44e6&#45;8579&#45;da80d36ae11a&#45;&gt;a32d6a3f&#45;2afe&#45;456b&#45;9124&#45;363b154b9d63</title>
<path fill="none" stroke="black" d="M1709.13,-99.87C1736.4,-99.87 1763.67,-99.87 1790.94,-99.87"/>
<polygon fill="black" stroke="black" points="1790.98,-103.37 1800.98,-99.87 1790.98,-96.37 1790.98,-103.37"/>
</g>
<!-- d6fb941b&#45;3d43&#45;4e8b&#45;87ab&#45;2a57ad57ca4d -->
<g id="node13" class="node">
<title>d6fb941b&#45;3d43&#45;4e8b&#45;87ab&#45;2a57ad57ca4d</title>
<polygon fill="white" stroke="black" points="1772.5,-36 1427.5,-36 1427.5,0 1772.5,0 1772.5,-36"/>
<text text-anchor="middle" x="1600" y="-14.3" font-family="Helvetica,sans-Serif" font-size="14.00">▶ Run GitHub Actions for `content_analysis.py`</text>
</g>
<!-- b50bff69&#45;4916&#45;44e6&#45;8579&#45;da80d36ae11a&#45;&gt;d6fb941b&#45;3d43&#45;4e8b&#45;87ab&#45;2a57ad57ca4d -->
<g id="edge9" class="edge">
<title>b50bff69&#45;4916&#45;44e6&#45;8579&#45;da80d36ae11a&#45;&gt;d6fb941b&#45;3d43&#45;4e8b&#45;87ab&#45;2a57ad57ca4d</title>
<path fill="none" stroke="black" stroke-dasharray="5,2" d="M1600,-72.72C1600,-64.27 1600,-54.89 1600,-46.36"/>
<polygon fill="black" stroke="black" points="1603.5,-46.15 1600,-36.15 1596.5,-46.15 1603.5,-46.15"/>
</g>
<!-- a32d6a3f&#45;2afe&#45;456b&#45;9124&#45;363b154b9d63&#45;&gt;end -->
<g id="edge13" class="edge">
<title>a32d6a3f&#45;2afe&#45;456b&#45;9124&#45;363b154b9d63&#45;&gt;end</title>
<path fill="none" stroke="black" d="M1995.28,-99.87C2014.25,-99.87 2031.51,-99.87 2042.12,-99.87"/>
<polygon fill="black" stroke="black" points="2042.32,-103.37 2052.32,-99.87 2042.32,-96.37 2042.32,-103.37"/>
<text text-anchor="middle" x="2023.69" y="-106.67" font-family="Helvetica,sans-Serif" font-size="14.00">Finish</text>
</g>
<!-- 6979fdde&#45;255e&#45;4760&#45;bd2f&#45;406f39172799 -->
<g id="node14" class="node">
<title>6979fdde&#45;255e&#45;4760&#45;bd2f&#45;406f39172799</title>
<polygon fill="white" stroke="black" points="2119.5,-36 1790.5,-36 1790.5,0 2119.5,0 2119.5,-36"/>
<text text-anchor="middle" x="1955" y="-14.3" font-family="Helvetica,sans-Serif" font-size="14.00">▶ Run GitHub Actions for `user_interface.py`</text>
</g>
<!-- a32d6a3f&#45;2afe&#45;456b&#45;9124&#45;363b154b9d63&#45;&gt;6979fdde&#45;255e&#45;4760&#45;bd2f&#45;406f39172799 -->
<g id="edge11" class="edge">
<title>a32d6a3f&#45;2afe&#45;456b&#45;9124&#45;363b154b9d63&#45;&gt;6979fdde&#45;255e&#45;4760&#45;bd2f&#45;406f39172799</title>
<path fill="none" stroke="black" stroke-dasharray="5,2" d="M1916.35,-73.16C1922.86,-64.04 1930.18,-53.77 1936.69,-44.65"/>
<polygon fill="black" stroke="black" points="1939.67,-46.51 1942.63,-36.34 1933.97,-42.44 1939.67,-46.51"/>
</g>
</g>
</svg>
