<?xml version="1.0" encoding="UTF-8" standalone="no"?>
<!DOCTYPE svg PUBLIC "-//W3C//DTD SVG 1.1//EN"
 "http://www.w3.org/Graphics/SVG/1.1/DTD/svg11.dtd">
<!-- Generated by graphviz version 2.43.0 (0)
 -->
<!-- Title: %3 Pages: 1 -->
<svg width="2194pt" height="238pt"
 viewBox="0.00 0.00 2193.50 237.74" xmlns="http://www.w3.org/2000/svg" xmlns:xlink="http://www.w3.org/1999/xlink">
<g id="graph0" class="graph" transform="scale(1 1) rotate(0) translate(36 201.74)">
<title>%3</title>
<polygon fill="dimgray" stroke="transparent" points="-36,36 -36,-201.74 2157.5,-201.74 2157.5,36 -36,36"/>
<text text-anchor="middle" x="1060.75" y="-150.54" font-family="Helvetica,sans-Serif" font-size="14.00">Sweep&#39;s Plan &amp; Progress</text>
<!-- start -->
<g id="node1" class="node">
<title>start</title>
</g>
<!-- 4b4af4b2&#45;0a76&#45;435c&#45;a62d&#45;430c339d9fd4 -->
<g id="node3" class="node">
<title>4b4af4b2&#45;0a76&#45;435c&#45;a62d&#45;430c339d9fd4</title>
<ellipse fill="#0ee832" stroke="black" cx="259" cy="-99.87" rx="147.57" ry="26.74"/>
<text text-anchor="middle" x="259" y="-103.67" font-family="Helvetica,sans-Serif" font-size="14.00">✓ Modify</text>
<text text-anchor="middle" x="259" y="-88.67" font-family="Helvetica,sans-Serif" font-size="14.00">blog_generator_prompts.txt</text>
</g>
<!-- start&#45;&gt;4b4af4b2&#45;0a76&#45;435c&#45;a62d&#45;430c339d9fd4 -->
<g id="edge12" class="edge">
<title>start&#45;&gt;4b4af4b2&#45;0a76&#45;435c&#45;a62d&#45;430c339d9fd4</title>
<path fill="none" stroke="black" d="M59.57,-99.87C62.77,-99.87 79,-99.87 100.94,-99.87"/>
<polygon fill="black" stroke="black" points="101.03,-103.37 111.03,-99.87 101.03,-96.37 101.03,-103.37"/>
<text text-anchor="middle" x="85.36" y="-106.67" font-family="Helvetica,sans-Serif" font-size="14.00">Start</text>
</g>
<!-- end -->
<g id="node2" class="node">
<title>end</title>
</g>
<!-- 422cc47d&#45;5bb6&#45;4898&#45;aa27&#45;da2dfd0d76e3 -->
<g id="node4" class="node">
<title>422cc47d&#45;5bb6&#45;4898&#45;aa27&#45;da2dfd0d76e3</title>
<ellipse fill="#0ee832" stroke="black" cx="558" cy="-99.87" rx="56.64" ry="26.74"/>
<text text-anchor="middle" x="558" y="-103.67" font-family="Helvetica,sans-Serif" font-size="14.00">✓ Modify</text>
<text text-anchor="middle" x="558" y="-88.67" font-family="Helvetica,sans-Serif" font-size="14.00">specs.txt</text>
</g>
<!-- 4b4af4b2&#45;0a76&#45;435c&#45;a62d&#45;430c339d9fd4&#45;&gt;422cc47d&#45;5bb6&#45;4898&#45;aa27&#45;da2dfd0d76e3 -->
<g id="edge2" class="edge">
<title>4b4af4b2&#45;0a76&#45;435c&#45;a62d&#45;430c339d9fd4&#45;&gt;422cc47d&#45;5bb6&#45;4898&#45;aa27&#45;da2dfd0d76e3</title>
<path fill="none" stroke="black" d="M407.04,-99.87C435.05,-99.87 463.06,-99.87 491.07,-99.87"/>
<polygon fill="black" stroke="black" points="491.39,-103.37 501.39,-99.87 491.39,-96.37 491.39,-103.37"/>
</g>
<!-- f4e6c906&#45;1b2c&#45;4cd4&#45;aeb4&#45;101802814467 -->
<g id="node9" class="node">
<title>f4e6c906&#45;1b2c&#45;4cd4&#45;aeb4&#45;101802814467</title>
<polygon fill="#0ee832" stroke="black" points="402,-36 0,-36 0,0 402,0 402,-36"/>
<text text-anchor="middle" x="201" y="-14.3" font-family="Helvetica,sans-Serif" font-size="14.00">✓ Run GitHub Actions for `blog_generator_prompts.txt`</text>
</g>
<!-- 4b4af4b2&#45;0a76&#45;435c&#45;a62d&#45;430c339d9fd4&#45;&gt;f4e6c906&#45;1b2c&#45;4cd4&#45;aeb4&#45;101802814467 -->
<g id="edge1" class="edge">
<title>4b4af4b2&#45;0a76&#45;435c&#45;a62d&#45;430c339d9fd4&#45;&gt;f4e6c906&#45;1b2c&#45;4cd4&#45;aeb4&#45;101802814467</title>
<path fill="none" stroke="black" stroke-dasharray="5,2" d="M240.33,-73.16C233.7,-64.04 226.25,-53.77 219.63,-44.65"/>
<polygon fill="black" stroke="black" points="222.3,-42.37 213.59,-36.34 216.63,-46.48 222.3,-42.37"/>
</g>
<!-- ff5ce07b&#45;090e&#45;4b20&#45;b514&#45;b4c768c0d602 -->
<g id="node5" class="node">
<title>ff5ce07b&#45;090e&#45;4b20&#45;b514&#45;b4c768c0d602</title>
<ellipse fill="white" stroke="black" cx="880" cy="-99.87" rx="100.32" ry="26.74"/>
<text text-anchor="middle" x="880" y="-103.67" font-family="Helvetica,sans-Serif" font-size="14.00">▶ Create</text>
<text text-anchor="middle" x="880" y="-88.67" font-family="Helvetica,sans-Serif" font-size="14.00">blog_generator.py</text>
</g>
<!-- 422cc47d&#45;5bb6&#45;4898&#45;aa27&#45;da2dfd0d76e3&#45;&gt;ff5ce07b&#45;090e&#45;4b20&#45;b514&#45;b4c768c0d602 -->
<g id="edge4" class="edge">
<title>422cc47d&#45;5bb6&#45;4898&#45;aa27&#45;da2dfd0d76e3&#45;&gt;ff5ce07b&#45;090e&#45;4b20&#45;b514&#45;b4c768c0d602</title>
<path fill="none" stroke="black" d="M614.6,-99.87C666.11,-99.87 717.62,-99.87 769.14,-99.87"/>
<polygon fill="black" stroke="black" points="769.44,-103.37 779.44,-99.87 769.44,-96.37 769.44,-103.37"/>
</g>
<!-- 47f91261&#45;3a7b&#45;4973&#45;b81a&#45;edaf21db9c1d -->
<g id="node10" class="node">
<title>47f91261&#45;3a7b&#45;4973&#45;b81a&#45;edaf21db9c1d</title>
<polygon fill="yellow" stroke="black" points="695.5,-36 420.5,-36 420.5,0 695.5,0 695.5,-36"/>
<text text-anchor="middle" x="558" y="-14.3" font-family="Helvetica,sans-Serif" font-size="14.00">⋯ Run GitHub Actions for `specs.txt`</text>
</g>
<!-- 422cc47d&#45;5bb6&#45;4898&#45;aa27&#45;da2dfd0d76e3&#45;&gt;47f91261&#45;3a7b&#45;4973&#45;b81a&#45;edaf21db9c1d -->
<g id="edge3" class="edge">
<title>422cc47d&#45;5bb6&#45;4898&#45;aa27&#45;da2dfd0d76e3&#45;&gt;47f91261&#45;3a7b&#45;4973&#45;b81a&#45;edaf21db9c1d</title>
<path fill="none" stroke="black" stroke-dasharray="5,2" d="M558,-72.72C558,-64.27 558,-54.89 558,-46.36"/>
<polygon fill="black" stroke="black" points="561.5,-46.15 558,-36.15 554.5,-46.15 561.5,-46.15"/>
</g>
<!-- 8770978c&#45;79c4&#45;4b41&#45;a8a0&#45;86bdec102907 -->
<g id="node6" class="node">
<title>8770978c&#45;79c4&#45;4b41&#45;a8a0&#45;86bdec102907</title>
<ellipse fill="white" stroke="black" cx="1238" cy="-99.87" rx="109.7" ry="26.74"/>
<text text-anchor="middle" x="1238" y="-103.67" font-family="Helvetica,sans-Serif" font-size="14.00">▶ Create</text>
<text text-anchor="middle" x="1238" y="-88.67" font-family="Helvetica,sans-Serif" font-size="14.00">content_curation.py</text>
</g>
<!-- ff5ce07b&#45;090e&#45;4b20&#45;b514&#45;b4c768c0d602&#45;&gt;8770978c&#45;79c4&#45;4b41&#45;a8a0&#45;86bdec102907 -->
<g id="edge6" class="edge">
<title>ff5ce07b&#45;090e&#45;4b20&#45;b514&#45;b4c768c0d602&#45;&gt;8770978c&#45;79c4&#45;4b41&#45;a8a0&#45;86bdec102907</title>
<path fill="none" stroke="black" d="M980.69,-99.87C1026.49,-99.87 1072.3,-99.87 1118.11,-99.87"/>
<polygon fill="black" stroke="black" points="1118.19,-103.37 1128.19,-99.87 1118.19,-96.37 1118.19,-103.37"/>
</g>
<!-- 2c9abb09&#45;2828&#45;46b9&#45;80dc&#45;85ff910775f3 -->
<g id="node11" class="node">
<title>2c9abb09&#45;2828&#45;46b9&#45;80dc&#45;85ff910775f3</title>
<polygon fill="white" stroke="black" points="1046.5,-36 713.5,-36 713.5,0 1046.5,0 1046.5,-36"/>
<text text-anchor="middle" x="880" y="-14.3" font-family="Helvetica,sans-Serif" font-size="14.00">▶ Run GitHub Actions for `blog_generator.py`</text>
</g>
<!-- ff5ce07b&#45;090e&#45;4b20&#45;b514&#45;b4c768c0d602&#45;&gt;2c9abb09&#45;2828&#45;46b9&#45;80dc&#45;85ff910775f3 -->
<g id="edge5" class="edge">
<title>ff5ce07b&#45;090e&#45;4b20&#45;b514&#45;b4c768c0d602&#45;&gt;2c9abb09&#45;2828&#45;46b9&#45;80dc&#45;85ff910775f3</title>
<path fill="none" stroke="black" stroke-dasharray="5,2" d="M880,-72.72C880,-64.27 880,-54.89 880,-46.36"/>
<polygon fill="black" stroke="black" points="883.5,-46.15 880,-36.15 876.5,-46.15 883.5,-46.15"/>
</g>
<!-- b50bff69&#45;4916&#45;44e6&#45;8579&#45;da80d36ae11a -->
<g id="node7" class="node">
<title>b50bff69&#45;4916&#45;44e6&#45;8579&#45;da80d36ae11a</title>
<ellipse fill="white" stroke="black" cx="1602" cy="-99.87" rx="108.79" ry="26.74"/>
<text text-anchor="middle" x="1602" y="-103.67" font-family="Helvetica,sans-Serif" font-size="14.00">▶ Create</text>
<text text-anchor="middle" x="1602" y="-88.67" font-family="Helvetica,sans-Serif" font-size="14.00">content_analysis.py</text>
</g>
<!-- 8770978c&#45;79c4&#45;4b41&#45;a8a0&#45;86bdec102907&#45;&gt;b50bff69&#45;4916&#45;44e6&#45;8579&#45;da80d36ae11a -->
<g id="edge8" class="edge">
<title>8770978c&#45;79c4&#45;4b41&#45;a8a0&#45;86bdec102907&#45;&gt;b50bff69&#45;4916&#45;44e6&#45;8579&#45;da80d36ae11a</title>
<path fill="none" stroke="black" d="M1347.84,-99.87C1392.76,-99.87 1437.68,-99.87 1482.6,-99.87"/>
<polygon fill="black" stroke="black" points="1482.79,-103.37 1492.79,-99.87 1482.79,-96.37 1482.79,-103.37"/>
</g>
<!-- a7989308&#45;5499&#45;43c3&#45;a0f7&#45;31820f76e9ef -->
<g id="node12" class="node">
<title>a7989308&#45;5499&#45;43c3&#45;a0f7&#45;31820f76e9ef</title>
<polygon fill="white" stroke="black" points="1411,-36 1065,-36 1065,0 1411,0 1411,-36"/>
<text text-anchor="middle" x="1238" y="-14.3" font-family="Helvetica,sans-Serif" font-size="14.00">▶ Run GitHub Actions for `content_curation.py`</text>
</g>
<!-- 8770978c&#45;79c4&#45;4b41&#45;a8a0&#45;86bdec102907&#45;&gt;a7989308&#45;5499&#45;43c3&#45;a0f7&#45;31820f76e9ef -->
<g id="edge7" class="edge">
<title>8770978c&#45;79c4&#45;4b41&#45;a8a0&#45;86bdec102907&#45;&gt;a7989308&#45;5499&#45;43c3&#45;a0f7&#45;31820f76e9ef</title>
<path fill="none" stroke="black" stroke-dasharray="5,2" d="M1238,-72.72C1238,-64.27 1238,-54.89 1238,-46.36"/>
<polygon fill="black" stroke="black" points="1241.5,-46.15 1238,-36.15 1234.5,-46.15 1241.5,-46.15"/>
</g>
<!-- a32d6a3f&#45;2afe&#45;456b&#45;9124&#45;363b154b9d63 -->
<g id="node8" class="node">
<title>a32d6a3f&#45;2afe&#45;456b&#45;9124&#45;363b154b9d63</title>
<ellipse fill="white" stroke="black" cx="1900" cy="-99.87" rx="96.75" ry="26.74"/>
<text text-anchor="middle" x="1900" y="-103.67" font-family="Helvetica,sans-Serif" font-size="14.00">▶ Create</text>
<text text-anchor="middle" x="1900" y="-88.67" font-family="Helvetica,sans-Serif" font-size="14.00">user_interface.py</text>
</g>
<!-- b50bff69&#45;4916&#45;44e6&#45;8579&#45;da80d36ae11a&#45;&gt;a32d6a3f&#45;2afe&#45;456b&#45;9124&#45;363b154b9d63 -->
<g id="edge10" class="edge">
<title>b50bff69&#45;4916&#45;44e6&#45;8579&#45;da80d36ae11a&#45;&gt;a32d6a3f&#45;2afe&#45;456b&#45;9124&#45;363b154b9d63</title>
<path fill="none" stroke="black" d="M1711.13,-99.87C1738.4,-99.87 1765.67,-99.87 1792.94,-99.87"/>
<polygon fill="black" stroke="black" points="1792.98,-103.37 1802.98,-99.87 1792.98,-96.37 1792.98,-103.37"/>
</g>
<!-- d6fb941b&#45;3d43&#45;4e8b&#45;87ab&#45;2a57ad57ca4d -->
<g id="node13" class="node">
<title>d6fb941b&#45;3d43&#45;4e8b&#45;87ab&#45;2a57ad57ca4d</title>
<polygon fill="white" stroke="black" points="1774.5,-36 1429.5,-36 1429.5,0 1774.5,0 1774.5,-36"/>
<text text-anchor="middle" x="1602" y="-14.3" font-family="Helvetica,sans-Serif" font-size="14.00">▶ Run GitHub Actions for `content_analysis.py`</text>
</g>
<!-- b50bff69&#45;4916&#45;44e6&#45;8579&#45;da80d36ae11a&#45;&gt;d6fb941b&#45;3d43&#45;4e8b&#45;87ab&#45;2a57ad57ca4d -->
<g id="edge9" class="edge">
<title>b50bff69&#45;4916&#45;44e6&#45;8579&#45;da80d36ae11a&#45;&gt;d6fb941b&#45;3d43&#45;4e8b&#45;87ab&#45;2a57ad57ca4d</title>
<path fill="none" stroke="black" stroke-dasharray="5,2" d="M1602,-72.72C1602,-64.27 1602,-54.89 1602,-46.36"/>
<polygon fill="black" stroke="black" points="1605.5,-46.15 1602,-36.15 1598.5,-46.15 1605.5,-46.15"/>
</g>
<!-- a32d6a3f&#45;2afe&#45;456b&#45;9124&#45;363b154b9d63&#45;&gt;end -->
<g id="edge13" class="edge">
<title>a32d6a3f&#45;2afe&#45;456b&#45;9124&#45;363b154b9d63&#45;&gt;end</title>
<path fill="none" stroke="black" d="M1997.28,-99.87C2016.25,-99.87 2033.51,-99.87 2044.12,-99.87"/>
<polygon fill="black" stroke="black" points="2044.32,-103.37 2054.32,-99.87 2044.32,-96.37 2044.32,-103.37"/>
<text text-anchor="middle" x="2025.69" y="-106.67" font-family="Helvetica,sans-Serif" font-size="14.00">Finish</text>
</g>
<!-- 6979fdde&#45;255e&#45;4760&#45;bd2f&#45;406f39172799 -->
<g id="node14" class="node">
<title>6979fdde&#45;255e&#45;4760&#45;bd2f&#45;406f39172799</title>
<polygon fill="white" stroke="black" points="2121.5,-36 1792.5,-36 1792.5,0 2121.5,0 2121.5,-36"/>
<text text-anchor="middle" x="1957" y="-14.3" font-family="Helvetica,sans-Serif" font-size="14.00">▶ Run GitHub Actions for `user_interface.py`</text>
</g>
<!-- a32d6a3f&#45;2afe&#45;456b&#45;9124&#45;363b154b9d63&#45;&gt;6979fdde&#45;255e&#45;4760&#45;bd2f&#45;406f39172799 -->
<g id="edge11" class="edge">
<title>a32d6a3f&#45;2afe&#45;456b&#45;9124&#45;363b154b9d63&#45;&gt;6979fdde&#45;255e&#45;4760&#45;bd2f&#45;406f39172799</title>
<path fill="none" stroke="black" stroke-dasharray="5,2" d="M1918.35,-73.16C1924.86,-64.04 1932.18,-53.77 1938.69,-44.65"/>
<polygon fill="black" stroke="black" points="1941.67,-46.51 1944.63,-36.34 1935.97,-42.44 1941.67,-46.51"/>
</g>
</g>
</svg>
